<svg width="91" height="36" viewBox="0 0 91 36" fill="none" xmlns="http://www.w3.org/2000/svg">
<g clip-path="url(#clip0_424_551)">
<path d="M27.0545 17.4292C26.3137 17.4292 25.8878 18.0959 25.8878 18.9477C25.8878 19.7996 26.2952 20.3922 27.036 20.3922C27.5175 20.3922 27.9434 20.0404 28.036 19.5774C28.0545 19.4663 28.0731 19.3552 28.0731 19.244V18.5588C28.0731 18.4662 28.0545 18.3551 28.0545 18.2625C27.9619 17.781 27.536 17.4292 27.0545 17.4292ZM18.3691 0.150879C8.49839 0.150879 0.516669 8.15112 0.535188 18.0218C0.553707 27.8925 8.53543 35.8557 18.4061 35.8557C28.2582 35.8557 36.24 27.8554 36.24 18.0033C36.2214 8.1326 28.2212 0.150879 18.3691 0.150879ZM5.8872 21.2256H2.12783V14.8921H3.27601V20.2626H5.8872V21.2256ZM7.97986 21.2256H6.81315V16.6514H7.97986V21.2256ZM7.38725 15.9847C7.0539 16.0032 6.7576 15.7439 6.73908 15.4106C6.73908 15.3921 6.73908 15.3736 6.73908 15.355C6.72056 15.0032 6.99835 14.6884 7.36873 14.6698C7.73911 14.6513 8.03541 14.9291 8.05393 15.2995C8.07245 15.6513 7.79467 15.9662 7.42428 15.9847C7.40577 15.9847 7.38725 15.9847 7.38725 15.9847ZM11.6466 21.2256H10.4985L8.7947 16.6329H10.054L10.7948 18.9663C10.9244 19.3737 11.017 19.7441 11.1096 20.1144H11.1466C11.2392 19.7441 11.3318 19.3737 11.4614 18.9663L12.1652 16.6514H13.3874L11.6466 21.2256ZM16.7579 17.6699C16.6468 17.6514 16.5357 17.6329 16.4246 17.6329C15.906 17.6144 15.4616 18.0033 15.3875 18.5033C15.369 18.6144 15.3504 18.744 15.3504 18.8551V21.2256H14.2023V18.1329C14.2023 17.5033 14.2023 17.0588 14.1652 16.6514H15.1653L15.2023 17.5218H15.2393C15.406 16.9662 15.906 16.5588 16.4986 16.5403C16.5912 16.5403 16.6838 16.5403 16.7764 16.5773L16.7579 17.6699ZM19.5543 21.3367C18.2579 21.3367 17.2579 20.4478 17.2579 18.9663C17.2579 17.4662 18.2394 16.5403 19.6284 16.5403C21.0173 16.5403 21.9062 17.5033 21.9062 18.8922C21.9247 20.5774 20.721 21.3367 19.5543 21.3367ZM28.2397 21.2256L28.1842 20.5033H28.1656C27.8508 21.0404 27.2767 21.3552 26.6656 21.3367C25.573 21.3367 24.7026 20.4107 24.7026 18.9848C24.7026 17.4477 25.6471 16.5403 26.7582 16.5403C27.3878 16.5403 27.8508 16.7995 28.0545 17.1514H28.0731V14.5587H29.2398V19.9478C29.2398 20.4293 29.2583 20.9293 29.2768 21.2441L28.2397 21.2256ZM34.4992 19.0033C34.4992 20.4107 33.6288 21.3367 32.1287 21.3367C31.5732 21.3367 31.0361 21.2441 30.5361 21.0404L30.7028 20.2441C31.1102 20.3922 31.5361 20.4663 31.9806 20.4478C32.7213 20.4478 33.3695 20.0959 33.388 19.2626H30.3139C30.2953 19.0959 30.2768 18.9292 30.2768 18.7811C30.2768 17.781 30.7583 16.5403 32.2584 16.5403C33.7214 16.5403 34.4992 17.744 34.4992 19.0033ZM32.3324 17.3366C31.5546 17.3366 31.3694 18.0403 31.388 18.4662H33.4065C33.351 17.9847 33.0362 17.3366 32.3324 17.3366ZM19.6098 17.3921C18.795 17.3921 18.4617 18.1885 18.4617 18.9477C18.4617 19.8367 18.8876 20.5033 19.6098 20.5033C20.2765 20.5033 20.721 19.8552 20.721 18.9292C20.721 18.207 20.4062 17.3921 19.6098 17.3921ZM78.519 15.5217C78.6486 15.5402 78.7783 15.5958 78.8894 15.6884C79.0746 15.7995 79.2968 15.8736 79.519 15.8921C79.982 15.8921 80.2598 15.5587 80.2228 14.7995H79.6672C79.6487 15.1143 79.5746 15.2069 79.4079 15.2069C79.2598 15.1884 79.1301 15.1143 79.019 15.0402C78.8338 14.9291 78.6301 14.855 78.4079 14.8365C77.9634 14.8365 77.6671 15.2439 77.6857 15.9662H78.2783C78.2968 15.6699 78.3709 15.5217 78.519 15.5217ZM79.0005 16.5403C77.6116 16.5403 76.6301 17.4662 76.6301 18.9663C76.6301 20.4293 77.6301 21.3367 78.9264 21.3367C80.0931 21.3367 81.2784 20.5774 81.2784 18.8922C81.2784 17.5033 80.3709 16.5403 79.0005 16.5403ZM78.9635 20.5033C78.2598 20.5033 77.8153 19.8367 77.8153 18.9477C77.8153 18.1885 78.1486 17.3921 78.9635 17.3921C79.7783 17.3921 80.0746 18.207 80.0746 18.9292C80.0931 19.8552 79.6302 20.5033 78.9635 20.5033ZM84.2784 16.5403C82.8154 16.5403 82.0376 17.744 82.0376 19.0033C82.0376 20.4107 82.908 21.3367 84.4081 21.3367C84.9637 21.3367 85.5007 21.2441 86.0007 21.0404L85.834 20.2441C85.4266 20.3922 85.0007 20.4663 84.5562 20.4478C83.8155 20.4478 83.1673 20.0959 83.1488 19.2626H86.2229C86.26 19.0959 86.26 18.9292 86.26 18.7811C86.26 17.7625 85.7785 16.5403 84.2784 16.5403ZM83.1488 18.4477C83.2043 17.9662 83.5006 17.3181 84.2229 17.3181C85.0007 17.3181 85.1859 18.0218 85.1674 18.4477H83.1488ZM89.0378 18.4848C88.4638 18.2811 88.2415 18.1329 88.2415 17.8366C88.2415 17.5403 88.4638 17.3551 88.8897 17.3551C89.223 17.3551 89.5564 17.4477 89.8527 17.6144L90.0749 16.7995C89.7045 16.6143 89.2786 16.5217 88.8527 16.5217C87.7785 16.5217 87.1119 17.1514 87.1119 17.9662C87.1119 18.5033 87.4822 19.0033 88.3712 19.2996C88.9267 19.5033 89.1304 19.6515 89.1304 19.9663C89.1304 20.2811 88.9082 20.4663 88.3897 20.4663C87.9823 20.4478 87.5748 20.3367 87.2045 20.133L86.9822 20.9663C87.4082 21.1885 87.8897 21.2997 88.3712 21.2997C89.5934 21.2997 90.2416 20.6885 90.2416 19.8552C90.2416 19.2255 89.8712 18.7996 89.0378 18.4848ZM58.4073 18.4662C58.4073 17.4662 57.9814 16.5403 56.5184 16.5403C55.9443 16.5217 55.3702 16.6699 54.8516 16.9477L55.0739 17.707C55.4442 17.4847 55.8702 17.3736 56.3146 17.3736C57.1295 17.3736 57.2406 17.8736 57.2406 18.1699V18.244C55.5554 18.244 54.5183 18.8181 54.5183 19.9663C54.5183 20.7256 55.1294 21.3367 55.8702 21.3367C55.9072 21.3367 55.9257 21.3367 55.9628 21.3367C56.4813 21.3552 56.9813 21.133 57.3147 20.7256H57.3517L57.4258 21.2441H58.4629C58.4073 20.8737 58.3888 20.5033 58.3888 20.133L58.4073 18.4662ZM57.2776 19.6144C57.2776 19.707 57.2591 19.7811 57.2406 19.8737C57.111 20.2626 56.7406 20.5033 56.3332 20.5033C55.9998 20.5404 55.7035 20.2811 55.6665 19.9478C55.6665 19.9107 55.6665 19.8737 55.6665 19.8367C55.6665 19.1329 56.4443 18.9663 57.2591 18.9848L57.2776 19.6144ZM52.333 21.2256H53.4997V14.5402H52.333V21.2256ZM44.9995 16.5403C43.5365 16.5403 42.7587 17.744 42.7587 19.0033C42.7587 20.4107 43.6291 21.3367 45.1291 21.3367C45.6847 21.3367 46.2217 21.2441 46.7218 21.0404L46.5551 20.2441C46.1477 20.3922 45.7217 20.4663 45.2773 20.4478C44.5365 20.4478 43.8883 20.0959 43.8698 19.2626H46.944C46.9625 19.0959 46.981 18.9292 46.981 18.7811C46.981 17.7625 46.4995 16.5403 44.9995 16.5403ZM43.8698 18.4477C43.9254 17.9662 44.2217 17.3181 44.9439 17.3181C45.7217 17.3181 45.9069 18.0218 45.8884 18.4477H43.8698ZM50.3145 17.4477C50.6108 17.4477 50.9071 17.5033 51.1849 17.6329L51.3886 16.7625C51.0367 16.6143 50.6478 16.5403 50.2774 16.5403C48.6663 16.5403 47.7218 17.6144 47.7218 18.9848C47.7218 20.4107 48.6477 21.3367 50.0922 21.3367C50.5367 21.3367 50.9811 21.2626 51.3886 21.096L51.2219 20.2441C50.9256 20.3737 50.6293 20.4293 50.3145 20.4293C49.5181 20.4293 48.907 19.8922 48.907 18.9477C48.8885 18.0959 49.4255 17.4477 50.3145 17.4477ZM75.0004 17.4477C75.2967 17.4477 75.593 17.5033 75.8708 17.6329L76.0745 16.7625C75.7226 16.6143 75.3337 16.5403 74.9448 16.5403C73.3337 16.5403 72.3892 17.6144 72.3892 18.9848C72.3892 20.2441 73.13 21.133 74.3152 21.2811L73.9263 22.0404C74.4078 22.096 74.667 22.1886 74.667 22.4108C74.667 22.633 74.4819 22.6701 74.2967 22.6701C74.1115 22.6701 73.9448 22.633 73.7781 22.5404L73.6115 23.059C73.8337 23.1886 74.0929 23.2442 74.3522 23.2442C74.8708 23.2442 75.4078 23.0219 75.4078 22.4108C75.4078 22.0034 75.093 21.7626 74.7411 21.6886L74.9448 21.3367C75.3337 21.3367 75.7226 21.2626 76.0745 21.096L75.9078 20.2441C75.6115 20.3737 75.3152 20.4293 75.0004 20.4293C74.2041 20.4293 73.5929 19.8922 73.5929 18.9477C73.5744 18.0959 74.0929 17.4477 75.0004 17.4477ZM71.3707 18.4662C71.3707 17.4662 70.9447 16.5403 69.4817 16.5403C68.9076 16.5217 68.3335 16.6699 67.815 16.9477L68.0372 17.707C68.4076 17.4847 68.8335 17.3736 69.278 17.3736C70.0928 17.3736 70.2039 17.8736 70.2039 18.1699V18.244C68.5187 18.244 67.4816 18.8181 67.4816 19.9663C67.4816 20.7256 68.0743 21.3367 68.8335 21.3367C68.8706 21.3367 68.8891 21.3367 68.9261 21.3367C69.4447 21.3552 69.9447 21.133 70.278 20.7256H70.3151L70.3891 21.2441H71.4262C71.3707 20.8737 71.3521 20.5033 71.3521 20.133L71.3707 18.4662ZM70.241 19.6144C70.241 19.707 70.2225 19.7811 70.2039 19.8737C70.0743 20.2626 69.7039 20.5033 69.2965 20.5033C68.9632 20.5404 68.6669 20.2811 68.6298 19.9478C68.6298 19.9107 68.6298 19.8737 68.6298 19.8367C68.6298 19.1329 69.4076 18.9663 70.2225 18.9848V19.6144H70.241ZM40.7216 18.244V18.207C41.4068 17.9662 41.8698 17.3366 41.8698 16.6143C41.8883 16.1328 41.6846 15.6513 41.3142 15.3365C40.8883 14.9847 40.2771 14.818 39.3512 14.818C38.7586 14.818 38.1845 14.855 37.5919 14.9476V21.2071H38.74V18.6329H39.3141C39.9808 18.6514 40.2771 18.9107 40.4623 19.7441C40.5549 20.2626 40.7031 20.7626 40.8883 21.2441H42.092C41.9624 21.0034 41.7957 20.2626 41.592 19.4663C41.4438 18.8551 41.1846 18.4107 40.7216 18.244ZM39.4623 17.781H38.7771V15.7625C39.0178 15.7254 39.2586 15.7069 39.4993 15.7069C40.2586 15.7069 40.7401 16.0217 40.7401 16.7255C40.7216 17.3551 40.2401 17.781 39.4623 17.781ZM64.9445 16.5403C64.6112 16.5217 64.2964 16.6329 64.0186 16.818C63.7963 16.9662 63.5926 17.1514 63.4445 17.3921H63.426C63.2223 16.8736 62.7222 16.5217 62.1667 16.5403C61.5926 16.5217 61.0555 16.818 60.7592 17.3181H60.7222L60.6851 16.6329H59.6851C59.7036 17.0218 59.7221 17.4662 59.7221 18.0033V21.2256H60.8518V18.5218C60.8518 18.3922 60.8703 18.2625 60.9259 18.1514C61.037 17.781 61.3703 17.5033 61.7592 17.4847C62.2963 17.4847 62.5556 17.9292 62.5556 18.5774V21.2256H63.6852V18.4848C63.6852 18.3551 63.7038 18.2255 63.7408 18.0959C63.8519 17.744 64.1852 17.5033 64.5556 17.4847C65.1112 17.4847 65.3705 17.9292 65.3705 18.707V21.2441H66.5001V18.5218C66.4816 17.0588 65.7223 16.5403 64.9445 16.5403Z" fill="white"/>
</g>
<defs>
<clipPath id="clip0_424_551">
<rect width="89.762" height="35.6863" fill="white" transform="translate(0.5 0.150879)"/>
</clipPath>
</defs>
</svg>
