<svg width="147" height="36" viewBox="0 0 147 36" fill="none" xmlns="http://www.w3.org/2000/svg">
<path fill-rule="evenodd" clip-rule="evenodd" d="M18.7713 2.96143C26.7727 2.96143 33.2664 9.48571 33.2664 17.5329C33.2664 25.58 26.7727 32.1043 18.7713 32.1043C10.7699 32.1043 4.27628 25.58 4.27628 17.5329C4.27628 9.48571 10.7528 2.96143 18.7713 2.96143Z" fill="white"/>
<path d="M41.1883 27.3474C41.1883 27.5625 41.1557 27.7776 41.1067 27.9926C41.0578 28.1746 40.9762 28.3566 40.8619 28.522C40.7477 28.6709 40.6335 28.8198 40.4866 28.9356C40.3398 29.0515 40.1603 29.1507 39.9808 29.2334C39.7849 29.3162 39.5891 29.3823 39.377 29.4154C39.1322 29.4651 38.8874 29.4816 38.6426 29.4816H36.7334C36.6518 29.4816 36.5539 29.4485 36.4886 29.3989C36.407 29.3162 36.3581 29.2003 36.3744 29.0845V22.4834C36.3581 22.3676 36.407 22.2518 36.4886 22.1691C36.5539 22.1195 36.6518 22.0864 36.7334 22.0864H38.3979C38.7569 22.0698 39.1159 22.1195 39.4749 22.2187C39.736 22.2849 39.9644 22.4173 40.1766 22.5827C40.3561 22.7481 40.5029 22.9467 40.6008 23.1783C40.6988 23.4265 40.7477 23.6912 40.7477 23.9724C40.7477 24.1378 40.7314 24.3198 40.6824 24.4853C40.6335 24.6342 40.5845 24.7831 40.5029 24.932C40.4213 25.0643 40.3234 25.1967 40.1929 25.2959C40.0623 25.4117 39.9155 25.4945 39.7686 25.5606C39.9644 25.5937 40.1603 25.6599 40.3234 25.7757C40.5029 25.875 40.6498 26.0073 40.7803 26.1562C40.9109 26.3217 41.0251 26.5037 41.0904 26.7022C41.1394 26.8842 41.1883 27.1158 41.1883 27.3474ZM39.7197 24.0386C39.7197 23.8731 39.7033 23.7077 39.6544 23.5423C39.6054 23.3934 39.5238 23.2776 39.4259 23.1783C39.3117 23.0625 39.1648 22.9963 39.018 22.9467C38.8058 22.8805 38.5774 22.864 38.3489 22.864H37.3535V25.2628H38.4631C38.6753 25.2628 38.8711 25.2298 39.0669 25.1636C39.2138 25.0974 39.3443 25.0147 39.4586 24.8989C39.5565 24.7831 39.6381 24.6507 39.687 24.5018C39.7033 24.3529 39.7197 24.1875 39.7197 24.0386ZM40.1603 27.4136C40.1603 27.2151 40.1276 27.0165 40.0623 26.8345C39.9971 26.6691 39.8828 26.5202 39.7523 26.4044C39.6054 26.2886 39.4259 26.1893 39.2464 26.1397C39.0017 26.0735 38.7406 26.0404 38.4958 26.057H37.3372V28.6709H38.7406C38.9364 28.6709 39.1322 28.6544 39.328 28.5882C39.4912 28.5386 39.6381 28.4559 39.7686 28.3566C39.8992 28.2573 39.9971 28.1084 40.0623 27.9595C40.1276 27.7941 40.1603 27.6121 40.1603 27.4136ZM47.2587 26.7022C47.2587 27.0992 47.2098 27.4798 47.0955 27.8603C46.9976 28.1912 46.8344 28.5055 46.606 28.7702C46.3775 29.0349 46.1001 29.2334 45.7901 29.3658C45.4311 29.5147 45.0394 29.5809 44.6641 29.5809C44.2888 29.5809 43.9135 29.5312 43.5708 29.3989C43.2771 29.2831 42.9996 29.1011 42.7875 28.8529C42.5754 28.6048 42.4122 28.307 42.3306 27.9761C42.2164 27.5956 42.1674 27.1985 42.1837 26.8015C42.1837 26.4044 42.2327 26.0239 42.3469 25.6434C42.4448 25.3125 42.608 24.9981 42.8365 24.7334C43.0649 24.4687 43.3423 24.2702 43.6524 24.1378C44.0114 23.989 44.403 23.9228 44.7783 23.9228C45.1537 23.9062 45.529 23.9724 45.8717 24.1048C46.1654 24.2206 46.4428 24.4026 46.6386 24.6507C46.8508 24.8989 47.0139 25.1967 47.1119 25.5276C47.2261 25.9246 47.275 26.3051 47.2587 26.7022ZM46.2959 26.7684C46.2959 26.5037 46.2633 26.239 46.2143 25.9742C46.1654 25.7426 46.0838 25.5276 45.9696 25.329C45.8553 25.147 45.6922 24.9816 45.4963 24.8823C45.0394 24.6673 44.5009 24.6673 44.044 24.8658C43.8482 24.9651 43.685 25.114 43.5545 25.2959C43.4239 25.4945 43.326 25.7095 43.2771 25.9412C43.2118 26.2059 43.1791 26.4871 43.1791 26.7518C43.1791 27.0165 43.1955 27.2812 43.2607 27.5459C43.3097 27.7776 43.3913 27.9926 43.5218 28.1912C43.6361 28.3731 43.7992 28.522 43.9951 28.6213C44.2235 28.7371 44.4846 28.8033 44.7457 28.7867C44.9905 28.7867 45.2352 28.7371 45.4474 28.6379C45.6432 28.5386 45.8064 28.3897 45.9369 28.2242C46.0675 28.0257 46.1654 27.8106 46.2143 27.579C46.2633 27.3143 46.2959 27.0331 46.2959 26.7684ZM53.3618 26.7022C53.3618 27.0992 53.3128 27.4798 53.1986 27.8603C53.1007 28.1912 52.9375 28.5055 52.709 28.7702C52.4806 29.0349 52.2032 29.2334 51.8931 29.3658C51.5341 29.5147 51.1425 29.5809 50.7672 29.5809C50.3918 29.5809 50.0165 29.5312 49.6738 29.3989C49.3801 29.2831 49.1027 29.1011 48.8906 28.8529C48.6784 28.6048 48.5152 28.307 48.4336 27.9761C48.3194 27.5956 48.2705 27.1985 48.2868 26.8015C48.2868 26.4044 48.3357 26.0239 48.45 25.6434C48.5479 25.3125 48.711 24.9981 48.9395 24.7334C49.168 24.4687 49.4454 24.2702 49.7554 24.1378C50.1144 23.989 50.5061 23.9228 50.8814 23.9228C51.2567 23.9062 51.632 23.9724 51.9747 24.1048C52.2684 24.2206 52.5459 24.4026 52.758 24.6507C52.9701 24.8989 53.1333 25.1967 53.2312 25.5276C53.3128 25.9246 53.3781 26.3051 53.3618 26.7022ZM52.3827 26.7684C52.3827 26.5037 52.35 26.239 52.3011 25.9742C52.2521 25.7426 52.1705 25.5276 52.0563 25.329C51.9421 25.147 51.7789 24.9816 51.5831 24.8823C51.1262 24.6673 50.5877 24.6673 50.1307 24.8658C49.9349 24.9651 49.7717 25.114 49.6412 25.2959C49.5106 25.4945 49.4127 25.7095 49.3638 25.9412C49.2985 26.2059 49.2659 26.4871 49.2659 26.7518C49.2659 27.0165 49.2822 27.2812 49.3475 27.5459C49.3964 27.7776 49.478 27.9926 49.6086 28.1912C49.7228 28.3731 49.886 28.522 50.0818 28.6213C50.3102 28.7371 50.5713 28.8033 50.8324 28.7867C51.0772 28.7867 51.322 28.7371 51.5341 28.6379C51.7299 28.5386 51.8931 28.3897 52.0237 28.2242C52.1542 28.0257 52.2521 27.8106 52.3011 27.579C52.35 27.3143 52.3827 27.0331 52.3827 26.7684ZM58.91 29.3327C58.91 29.3658 58.91 29.3823 58.8937 29.4154C58.8774 29.4485 58.8447 29.4651 58.8121 29.4816C58.7631 29.4981 58.7142 29.5147 58.6652 29.5147C58.5836 29.5312 58.502 29.5312 58.4205 29.5312C58.3225 29.5312 58.2409 29.5312 58.1757 29.5147C58.1267 29.5147 58.0614 29.4981 58.0125 29.4816C57.9799 29.4651 57.9309 29.4485 57.8983 29.432C57.8656 29.3989 57.8493 29.3823 57.8167 29.3492L55.679 26.4706V29.3327C55.679 29.3658 55.679 29.3823 55.6627 29.4154C55.6463 29.432 55.6137 29.4651 55.5811 29.4651C55.5321 29.4816 55.4832 29.4981 55.4342 29.4981C55.3526 29.5147 55.2873 29.5147 55.2057 29.5147C55.1242 29.5147 55.0589 29.5147 54.9773 29.4981C54.9283 29.4981 54.8794 29.4816 54.8304 29.4651C54.7978 29.4485 54.7815 29.432 54.7488 29.4154C54.7325 29.3989 54.7325 29.3658 54.7325 29.3327V21.6893C54.7325 21.6562 54.7325 21.6397 54.7488 21.6066C54.7651 21.5735 54.7978 21.557 54.8304 21.5404C54.8794 21.5239 54.9283 21.5073 54.9773 21.5073C55.0589 21.4908 55.1242 21.4908 55.2057 21.4908C55.2873 21.4908 55.3526 21.4908 55.4342 21.5073C55.4832 21.5073 55.5321 21.5239 55.5811 21.5404C55.6137 21.557 55.63 21.5735 55.6627 21.6066C55.679 21.6231 55.679 21.6562 55.679 21.6893V26.3382L57.5882 24.204C57.6209 24.1709 57.6535 24.1378 57.6861 24.1048C57.7188 24.0717 57.7677 24.0551 57.8004 24.0386C57.8493 24.022 57.9146 24.0055 57.9635 24.0055C58.0288 24.0055 58.1104 23.989 58.192 23.989C58.2736 23.989 58.3715 23.989 58.4368 24.0055C58.4857 24.0055 58.5347 24.022 58.5836 24.0386C58.6163 24.0551 58.6489 24.0717 58.6652 24.0882C58.6815 24.1048 58.6979 24.1379 58.6815 24.1709C58.6815 24.2206 58.6652 24.2702 58.6489 24.3033C58.6163 24.3695 58.5836 24.4191 58.5184 24.4687L56.7233 26.3382L58.7795 29.0515C58.8121 29.1011 58.861 29.1673 58.8774 29.2169C58.91 29.25 58.9263 29.2996 58.91 29.3327ZM67.3303 26.7022C67.3303 27.0992 67.2813 27.4798 67.1671 27.8603C67.0692 28.1912 66.906 28.5055 66.6775 28.7702C66.4491 29.0349 66.1717 29.2334 65.8616 29.3658C65.5026 29.5147 65.111 29.5809 64.7356 29.5809C64.3603 29.5809 63.985 29.5312 63.6423 29.3989C63.3486 29.2831 63.0712 29.1011 62.8754 28.8529C62.6632 28.6048 62.5 28.307 62.4184 27.9761C62.3205 27.5956 62.2553 27.1985 62.2716 26.8015C62.2716 26.4044 62.3205 26.0239 62.4348 25.6434C62.5327 25.3125 62.6959 24.9981 62.9243 24.7334C63.1528 24.4687 63.4302 24.2702 63.7402 24.1378C64.0992 23.989 64.4909 23.9228 64.8825 23.9228C65.2578 23.9062 65.6332 23.9724 65.9758 24.1048C66.2696 24.2206 66.547 24.4026 66.7591 24.6507C66.9713 24.8989 67.1344 25.1967 67.2323 25.5276C67.3466 25.9081 67.3955 26.2886 67.3792 26.6856L67.3303 26.7022ZM66.3512 26.7518C66.3512 26.4871 66.3348 26.2224 66.2696 25.9577C66.2206 25.7261 66.139 25.511 66.0085 25.3125C65.8942 25.1305 65.7311 24.9651 65.5352 24.8658C65.0783 24.6507 64.5398 24.6507 64.0829 24.8492C63.8871 24.9485 63.7239 25.0974 63.5934 25.2794C63.4628 25.4779 63.3649 25.693 63.2996 25.9246C63.2344 26.1893 63.2017 26.4706 63.2017 26.7353C63.2017 27 63.218 27.2647 63.2833 27.5294C63.3323 27.761 63.4139 27.9761 63.5444 28.1746C63.6586 28.3566 63.8218 28.5055 64.0176 28.6048C64.2461 28.7206 64.5072 28.7867 64.7683 28.7702C65.0131 28.7702 65.2578 28.7206 65.47 28.6213C65.6658 28.522 65.829 28.3731 65.9595 28.2077C66.0901 28.0092 66.188 27.7941 66.2369 27.5625C66.3185 27.3143 66.3512 27.0331 66.3512 26.7518ZM71.4914 22.0533C71.4914 22.1195 71.4914 22.1691 71.4751 22.2353C71.4751 22.2684 71.4588 22.3015 71.4588 22.3345C71.4588 22.3511 71.4425 22.3676 71.4262 22.3842C71.4098 22.4007 71.3935 22.4007 71.3772 22.4007C71.3446 22.4007 71.3119 22.3842 71.2793 22.3842C71.2467 22.3676 71.1977 22.3511 71.1324 22.318C71.0671 22.3015 71.0019 22.2684 70.9366 22.2518C70.855 22.2353 70.7571 22.2187 70.6755 22.2353C70.545 22.2353 70.4307 22.2518 70.3165 22.3015C70.2186 22.3511 70.137 22.4173 70.0717 22.5165C70.0065 22.6323 69.9575 22.7647 69.9412 22.897C69.9085 23.079 69.8922 23.2776 69.9085 23.4595V24.022H71.0508C71.0835 24.022 71.0998 24.022 71.1324 24.0386C71.1487 24.0551 71.1814 24.0717 71.1814 24.1048C71.1977 24.1378 71.214 24.1875 71.214 24.2371C71.2303 24.3033 71.2303 24.3529 71.2303 24.4191C71.2303 24.5184 71.214 24.6176 71.1814 24.7169C71.1651 24.7665 71.0998 24.7996 71.0508 24.8162H69.9085V29.3327C69.9085 29.3658 69.9086 29.3823 69.8922 29.4154C69.8759 29.432 69.8433 29.4651 69.8106 29.4651C69.7617 29.4816 69.7127 29.4981 69.6638 29.4981C69.5822 29.5147 69.5169 29.5147 69.4353 29.5147C69.3537 29.5147 69.2885 29.5147 69.2069 29.4981C69.1579 29.4981 69.109 29.4816 69.06 29.4651C69.0274 29.4485 69.011 29.432 68.9784 29.4154C68.9621 29.3989 68.9458 29.3658 68.9621 29.3327V24.8162H68.2441C68.1788 24.8162 68.1298 24.7831 68.1135 24.7169C68.0809 24.6176 68.0646 24.5184 68.0646 24.4191C68.0646 24.3529 68.0646 24.3033 68.0809 24.2371C68.0809 24.1875 68.0972 24.1544 68.1135 24.1048C68.1298 24.0717 68.1462 24.0551 68.1625 24.0386C68.1951 24.022 68.2114 24.022 68.2441 24.022H68.9621V23.4926C68.9621 23.1783 68.9947 22.864 69.06 22.5662C69.109 22.3345 69.2232 22.1195 69.37 21.9375C69.5006 21.772 69.6801 21.6397 69.8759 21.5735C70.1044 21.4908 70.3491 21.4577 70.6102 21.4577C70.7408 21.4577 70.8713 21.4742 71.0019 21.4908C71.0998 21.5073 71.1977 21.5404 71.2956 21.5735C71.3446 21.5901 71.3935 21.6231 71.4262 21.6562C71.4588 21.6893 71.4751 21.7059 71.4751 21.739C71.4914 21.7886 71.5077 21.8217 71.5077 21.8713C71.4914 21.9375 71.4914 21.9871 71.4914 22.0533ZM78.5083 28.5386C78.5083 28.6048 78.5083 28.6544 78.5083 28.704C78.5083 28.7537 78.492 28.7867 78.492 28.8198C78.4757 28.8529 78.4757 28.8695 78.4593 28.9026C78.4267 28.9522 78.4104 28.9853 78.3614 29.0184C78.2962 29.0845 78.2146 29.1507 78.1167 29.2003C78.0024 29.2831 77.8719 29.3327 77.7413 29.3823C77.5945 29.4485 77.4313 29.4816 77.2844 29.5147C77.1212 29.5478 76.9417 29.5643 76.7786 29.5643C76.4522 29.5643 76.1095 29.5147 75.7995 29.3823C75.522 29.2665 75.2773 29.0845 75.0815 28.8529C74.8856 28.6048 74.7388 28.307 74.6409 27.9926C74.5429 27.6121 74.4777 27.2151 74.494 26.818C74.4777 26.3713 74.5429 25.9412 74.6735 25.511C74.7714 25.1801 74.9509 24.8823 75.1794 24.6176C75.3915 24.386 75.6526 24.204 75.93 24.1048C76.2237 23.989 76.5501 23.9393 76.8601 23.9393C77.1702 23.9393 77.4639 24.0055 77.7577 24.1048C77.8719 24.1544 77.9861 24.204 78.1003 24.2702C78.1819 24.3198 78.2472 24.3695 78.3125 24.4356C78.3451 24.4687 78.3778 24.5018 78.4104 24.5515C78.4267 24.5845 78.443 24.6176 78.4593 24.6507C78.4757 24.6838 78.4757 24.7334 78.4757 24.7665C78.4757 24.8162 78.4757 24.8658 78.4757 24.932C78.4757 25.0312 78.4593 25.147 78.4267 25.2463C78.4104 25.2959 78.3614 25.329 78.2962 25.329C78.2309 25.329 78.1493 25.2794 78.1003 25.2298C78.0188 25.147 77.9208 25.0809 77.8229 25.0147C77.6924 24.932 77.5618 24.8658 77.415 24.8162C77.2355 24.75 77.0396 24.7169 76.8438 24.7169C76.4359 24.7003 76.0442 24.8989 75.8158 25.2463C75.571 25.5937 75.4568 26.1066 75.4568 26.7684C75.4568 27.0662 75.4894 27.3474 75.5547 27.6452C75.6036 27.8768 75.7016 28.0753 75.8321 28.2739C75.9463 28.4393 76.0932 28.5717 76.2727 28.6544C76.4685 28.7371 76.6643 28.7867 76.8765 28.7702C77.0723 28.7702 77.2681 28.7371 77.4476 28.6709C77.5945 28.6048 77.7413 28.5386 77.8719 28.4393C77.9861 28.3566 78.1003 28.2739 78.1656 28.2077C78.2146 28.1581 78.2798 28.125 78.3614 28.1084C78.3941 28.1084 78.4104 28.125 78.4267 28.125C78.443 28.1415 78.4593 28.1746 78.4757 28.2077C78.492 28.2573 78.5083 28.307 78.5083 28.3401C78.492 28.3897 78.492 28.4559 78.5083 28.5386ZM84.3666 26.7022C84.3666 27.0992 84.3176 27.4798 84.2034 27.8603C84.1055 28.1912 83.9423 28.5055 83.7138 28.7702C83.4854 29.0349 83.208 29.2334 82.8979 29.3658C82.5389 29.5147 82.1473 29.5809 81.772 29.5809C81.3966 29.5809 81.0213 29.5312 80.6786 29.3989C80.3849 29.2831 80.1075 29.1011 79.8954 28.8529C79.6832 28.6048 79.52 28.307 79.4384 27.9761C79.3242 27.5956 79.2753 27.1985 79.2916 26.8015C79.2916 26.4044 79.3405 26.0239 79.4548 25.6434C79.5527 25.3125 79.7159 24.9981 79.9443 24.7334C80.1728 24.4687 80.4502 24.2702 80.7602 24.1378C81.1192 23.989 81.5109 23.9228 81.9025 23.9228C82.2778 23.9062 82.6532 23.9724 82.9958 24.1048C83.2896 24.2206 83.567 24.4026 83.7791 24.6507C83.9913 24.8989 84.1544 25.1967 84.2523 25.5276C84.3176 25.9081 84.3666 26.3051 84.3666 26.7022ZM83.3875 26.7518C83.3875 26.4871 83.3548 26.2224 83.3059 25.9577C83.2569 25.7261 83.1753 25.511 83.0611 25.3125C82.9469 25.1305 82.7837 24.9651 82.5879 24.8658C82.3594 24.75 82.0983 24.6838 81.8372 24.7004C81.5925 24.7004 81.3477 24.75 81.1192 24.8492C80.9234 24.9485 80.7602 25.0974 80.6297 25.2794C80.4991 25.4779 80.4012 25.693 80.3523 25.9246C80.287 26.1893 80.2544 26.4706 80.2544 26.7353C80.2544 27 80.2707 27.2647 80.336 27.5294C80.3849 27.761 80.4665 27.9761 80.597 28.1746C80.7113 28.3566 80.8745 28.5055 81.0703 28.6048C81.5272 28.8198 82.0657 28.8198 82.5226 28.6213C82.7184 28.522 82.8816 28.3731 83.0122 28.2077C83.1427 28.0092 83.2406 27.7941 83.2896 27.5625C83.3548 27.2978 83.3712 27.0331 83.3875 26.7518ZM93.2764 29.3327C93.2764 29.3658 93.2764 29.3823 93.2601 29.4154C93.2437 29.432 93.2111 29.4651 93.1785 29.4651C93.1295 29.4816 93.0806 29.4981 93.0316 29.4981C92.95 29.5147 92.8847 29.5147 92.8031 29.5147C92.7215 29.5147 92.6563 29.5147 92.5747 29.4981C92.5257 29.4981 92.4768 29.4816 92.4278 29.4651C92.3952 29.4485 92.3789 29.432 92.3462 29.4154C92.3299 29.3989 92.3299 29.3658 92.3299 29.3327V26.2059C92.3299 26.0073 92.3136 25.8088 92.281 25.6103C92.2483 25.4448 92.183 25.2959 92.1015 25.147C92.0199 25.0147 91.922 24.9154 91.7914 24.8492C91.6446 24.7831 91.4977 24.7334 91.3345 24.75C91.0897 24.75 90.8613 24.8492 90.6818 24.9981C90.4207 25.2132 90.1759 25.4614 89.9638 25.7426V29.3492C89.9638 29.3823 89.9638 29.3989 89.9474 29.432C89.9311 29.4651 89.8985 29.4816 89.8658 29.4816C89.8169 29.4981 89.7679 29.5147 89.719 29.5147C89.6374 29.5312 89.5721 29.5312 89.4905 29.5312C89.4089 29.5312 89.3437 29.5312 89.2621 29.5147C89.2131 29.5147 89.1642 29.4981 89.1152 29.4816C89.0826 29.4651 89.0662 29.4485 89.0336 29.432C89.0173 29.4154 89.0173 29.3823 89.0173 29.3492V26.2224C89.0173 26.0239 89.001 25.8253 88.952 25.6268C88.9194 25.4614 88.8541 25.3125 88.7562 25.1636C88.6746 25.0312 88.5767 24.932 88.4462 24.8658C88.3156 24.7996 88.1524 24.75 87.9892 24.7665C87.7445 24.7665 87.516 24.8658 87.3365 25.0147C87.0754 25.2298 86.8306 25.4779 86.6185 25.7592V29.3658C86.6185 29.3989 86.6185 29.4154 86.6022 29.4485C86.5859 29.4816 86.5532 29.4981 86.5206 29.4981C86.4716 29.5147 86.4227 29.5312 86.3737 29.5312C86.2921 29.5478 86.2269 29.5478 86.1453 29.5478C86.0637 29.5478 85.9984 29.5478 85.9168 29.5312C85.8679 29.5312 85.8189 29.5147 85.77 29.4981C85.7373 29.4816 85.721 29.4651 85.6884 29.4485C85.672 29.432 85.672 29.3989 85.672 29.3658V24.204C85.672 24.1709 85.672 24.1544 85.6884 24.1213C85.7047 24.0882 85.721 24.0717 85.7536 24.0717C85.8026 24.0551 85.8352 24.0386 85.8842 24.0386C85.9495 24.0386 86.031 24.022 86.0963 24.022C86.1616 24.022 86.2269 24.022 86.3085 24.0386C86.3574 24.0386 86.39 24.0551 86.439 24.0717C86.4716 24.0882 86.488 24.1048 86.5043 24.1213C86.5206 24.1379 86.5206 24.1709 86.5206 24.204V24.8823C86.749 24.6011 87.0428 24.3529 87.3528 24.1709C87.5976 24.022 87.875 23.9559 88.1687 23.9393C88.3646 23.9393 88.5604 23.9559 88.7399 24.0055C88.9031 24.0551 89.0499 24.1213 89.1805 24.2206C89.311 24.3033 89.4253 24.4191 89.5069 24.5349C89.6048 24.6673 89.67 24.7996 89.7353 24.9485C89.8822 24.7831 90.0453 24.6176 90.2248 24.4687C90.3554 24.3529 90.5023 24.2371 90.6654 24.1544C90.796 24.0882 90.9265 24.022 91.0734 23.989C91.2039 23.9559 91.3345 23.9393 91.4814 23.9393C91.7588 23.9393 92.0362 23.989 92.2973 24.1213C92.5094 24.2371 92.6889 24.386 92.8358 24.5845C92.9826 24.7996 93.0806 25.0312 93.1295 25.2628C93.1948 25.5276 93.2111 25.8088 93.2111 26.0901L93.2764 29.3327ZM99.6405 26.6691C99.6405 27.0827 99.5916 27.4798 99.4937 27.8768C99.4121 28.2077 99.2652 28.522 99.0694 28.7867C98.8899 29.0349 98.6451 29.2334 98.384 29.3658C98.0903 29.4981 97.7639 29.5809 97.4375 29.5643C97.2907 29.5643 97.1601 29.5478 97.0296 29.5147C96.899 29.4816 96.7685 29.432 96.6543 29.3658C96.5237 29.2996 96.4095 29.2169 96.2953 29.1176C96.1647 29.0018 96.0342 28.886 95.9199 28.7702V31.3511C95.9199 31.3842 95.9199 31.4007 95.9036 31.4338C95.8873 31.4669 95.8547 31.4834 95.822 31.5C95.7731 31.5165 95.7241 31.5331 95.6752 31.5331C95.5283 31.5496 95.3651 31.5496 95.2183 31.5331C95.1693 31.5331 95.1203 31.5165 95.0714 31.5C95.0061 31.4834 94.9735 31.4173 94.9735 31.3676V24.1709C94.9735 24.1379 94.9735 24.1048 94.9898 24.0882C95.0061 24.0717 95.0224 24.0386 95.0551 24.0386C95.104 24.022 95.1367 24.0055 95.1856 24.0055C95.2509 24.0055 95.3162 23.989 95.3814 23.989C95.4467 23.989 95.512 23.989 95.5773 24.0055C95.6262 24.0055 95.6589 24.022 95.7078 24.0386C95.7404 24.0551 95.7568 24.0717 95.7731 24.0882C95.7894 24.1213 95.7894 24.1379 95.7894 24.1709V24.8658C95.9363 24.7169 96.0831 24.5845 96.23 24.4522C96.3605 24.3364 96.5074 24.2371 96.6543 24.1544C96.8011 24.0717 96.948 24.022 97.0949 23.9724C97.258 23.9228 97.4212 23.9062 97.5844 23.9062C97.9108 23.8897 98.2371 23.9724 98.5309 24.1213C98.792 24.2702 99.0041 24.4687 99.1673 24.7169C99.3305 24.9816 99.461 25.2794 99.5263 25.5937C99.6079 25.9577 99.6568 26.3217 99.6405 26.6691ZM98.6614 26.7849C98.6614 26.5202 98.6451 26.272 98.5961 26.0239C98.5635 25.7923 98.4982 25.5772 98.4003 25.3621C98.3024 25.1801 98.1719 25.0147 98.0087 24.8989C97.8292 24.7831 97.617 24.7169 97.4049 24.7334C97.2907 24.7334 97.1601 24.75 97.0459 24.7831C96.9154 24.8162 96.8011 24.8823 96.6869 24.9485C96.5564 25.0312 96.4258 25.147 96.3116 25.2628C96.1647 25.4117 96.0179 25.5772 95.8873 25.7426V27.7941C96.0994 28.0753 96.3442 28.307 96.6216 28.522C96.8338 28.6875 97.0949 28.7702 97.356 28.7702C97.5681 28.7867 97.7802 28.7206 97.9597 28.6048C98.1229 28.489 98.2698 28.3235 98.3677 28.1415C98.4819 27.943 98.5472 27.7279 98.5961 27.4963C98.6451 27.2647 98.6614 27.0331 98.6614 26.7849ZM101.974 29.3327C101.974 29.3658 101.974 29.3823 101.941 29.4154C101.925 29.432 101.892 29.4651 101.876 29.4651C101.827 29.4816 101.778 29.4981 101.729 29.4981C101.648 29.5147 101.582 29.5147 101.501 29.5147C101.419 29.5147 101.354 29.5147 101.272 29.4981C101.223 29.4981 101.174 29.4816 101.125 29.4651C101.093 29.4485 101.077 29.432 101.044 29.4154C101.028 29.3989 101.028 29.3658 101.028 29.3327V21.6893C101.028 21.6231 101.06 21.5735 101.125 21.557C101.174 21.5404 101.223 21.5239 101.272 21.5239C101.354 21.5073 101.419 21.5073 101.501 21.5073C101.582 21.5073 101.648 21.5073 101.729 21.5239C101.778 21.5239 101.827 21.5404 101.876 21.557C101.909 21.5735 101.925 21.5901 101.941 21.6231C101.958 21.6397 101.974 21.6728 101.974 21.7059V29.3327ZM104.618 29.3327C104.618 29.3658 104.618 29.3823 104.601 29.4154C104.585 29.4485 104.552 29.4651 104.52 29.4651C104.471 29.4816 104.422 29.4981 104.373 29.4981C104.291 29.5147 104.226 29.5147 104.144 29.5147C104.063 29.5147 103.998 29.5147 103.916 29.4981C103.867 29.4981 103.818 29.4816 103.769 29.4651C103.736 29.4485 103.72 29.432 103.687 29.4154C103.671 29.3989 103.671 29.3658 103.671 29.3327V24.1875C103.671 24.1544 103.671 24.1379 103.687 24.1213C103.704 24.0882 103.736 24.0717 103.769 24.0551C103.818 24.0386 103.867 24.022 103.916 24.022C103.998 24.0055 104.063 24.0055 104.144 24.0055C104.226 24.0055 104.291 24.0055 104.373 24.022C104.422 24.022 104.471 24.0386 104.52 24.0551C104.552 24.0717 104.569 24.0882 104.601 24.1213C104.618 24.1379 104.618 24.1709 104.618 24.1875V29.3327ZM104.732 22.4338C104.748 22.5992 104.699 22.7647 104.601 22.897C104.471 22.9963 104.308 23.0294 104.144 23.0129C103.981 23.0294 103.818 22.9963 103.687 22.897C103.59 22.7647 103.541 22.6158 103.573 22.4503C103.557 22.2849 103.606 22.1195 103.704 22.0037C103.981 21.8382 104.324 21.8382 104.618 22.0037C104.699 22.1195 104.748 22.2849 104.732 22.4338ZM113.886 29.3327C113.886 29.3658 113.886 29.3823 113.87 29.4154C113.854 29.432 113.821 29.4651 113.789 29.4651C113.74 29.4816 113.691 29.4981 113.642 29.4981C113.495 29.5147 113.332 29.5147 113.185 29.4981C113.136 29.4981 113.087 29.4816 113.038 29.4651C113.005 29.4485 112.989 29.432 112.956 29.4154C112.94 29.3989 112.94 29.3658 112.94 29.3327V26.2059C112.94 26.0073 112.924 25.8088 112.891 25.6103C112.858 25.4448 112.793 25.2959 112.711 25.147C112.63 25.0147 112.532 24.9154 112.401 24.8492C112.255 24.7831 112.108 24.7334 111.945 24.75C111.716 24.7665 111.488 24.8492 111.292 24.9981C111.031 25.2132 110.786 25.4614 110.574 25.7426V29.3492C110.574 29.3823 110.574 29.3989 110.541 29.432C110.525 29.4651 110.492 29.4816 110.46 29.4816C110.411 29.4981 110.362 29.5147 110.313 29.5147C110.231 29.5312 110.166 29.5312 110.084 29.5312C110.003 29.5312 109.937 29.5312 109.856 29.5147C109.807 29.5147 109.758 29.4981 109.709 29.4816C109.676 29.4651 109.66 29.4485 109.627 29.432C109.611 29.4154 109.611 29.3823 109.611 29.3492V26.2224C109.611 26.0239 109.595 25.8253 109.546 25.6268C109.513 25.4614 109.448 25.3125 109.35 25.1636C109.268 25.0312 109.17 24.932 109.04 24.8658C108.909 24.7996 108.746 24.75 108.583 24.7665C108.338 24.7831 108.11 24.8658 107.93 25.0147C107.669 25.2298 107.424 25.4779 107.212 25.7592V29.3658C107.212 29.3989 107.212 29.4154 107.196 29.4485C107.18 29.4816 107.147 29.4981 107.114 29.4981C107.065 29.5147 107.016 29.5312 106.967 29.5312C106.886 29.5478 106.821 29.5478 106.739 29.5478C106.657 29.5478 106.592 29.5478 106.511 29.5312C106.462 29.5312 106.413 29.5147 106.364 29.4981C106.331 29.4816 106.315 29.4651 106.282 29.4485C106.266 29.432 106.266 29.3989 106.266 29.3658V24.204C106.266 24.1709 106.266 24.1544 106.282 24.1213C106.298 24.0882 106.315 24.0717 106.347 24.0717C106.396 24.0551 106.429 24.0386 106.478 24.0386C106.543 24.0386 106.625 24.022 106.69 24.022C106.755 24.022 106.821 24.022 106.902 24.0386C106.951 24.0386 106.984 24.0551 107.033 24.0717C107.065 24.0882 107.082 24.1048 107.098 24.1213C107.114 24.1379 107.114 24.1709 107.114 24.204V24.8823C107.343 24.6011 107.636 24.3529 107.947 24.1709C108.191 24.022 108.469 23.9559 108.762 23.9393C108.958 23.9393 109.138 23.9559 109.334 24.0055C109.497 24.0551 109.644 24.1213 109.774 24.2206C109.905 24.3033 110.019 24.4191 110.101 24.5349C110.198 24.6673 110.264 24.7996 110.329 24.9485C110.476 24.7831 110.639 24.6176 110.819 24.4687C110.949 24.3529 111.096 24.2371 111.259 24.1544C111.39 24.0882 111.52 24.022 111.667 23.989C111.798 23.9559 111.928 23.9393 112.075 23.9393C112.352 23.9393 112.63 23.989 112.891 24.1213C113.103 24.2371 113.283 24.386 113.429 24.5845C113.576 24.7996 113.674 25.0312 113.723 25.2628C113.788 25.5276 113.805 25.8088 113.805 26.0901L113.886 29.3327Z" fill="white"/>
<path d="M119.908 26.5368C119.924 26.6526 119.875 26.7684 119.794 26.8511C119.728 26.9173 119.63 26.9504 119.549 26.9504H116.204C116.204 27.2151 116.236 27.4632 116.285 27.7279C116.334 27.943 116.432 28.1415 116.563 28.3235C116.693 28.489 116.873 28.6213 117.068 28.704C117.313 28.8033 117.574 28.8364 117.852 28.8364C118.064 28.8364 118.276 28.8198 118.488 28.7702C118.651 28.7371 118.815 28.6875 118.978 28.6379C119.108 28.5882 119.222 28.5386 119.32 28.5055C119.386 28.4724 119.451 28.4559 119.516 28.4393C119.549 28.4393 119.565 28.4393 119.582 28.4559C119.598 28.4724 119.614 28.489 119.63 28.522C119.647 28.5551 119.647 28.5882 119.663 28.6379C119.663 28.6875 119.679 28.7537 119.663 28.8033C119.663 28.8529 119.663 28.9026 119.663 28.9356C119.663 28.9687 119.663 29.0018 119.647 29.0349C119.647 29.068 119.63 29.0845 119.614 29.1176C119.598 29.1342 119.582 29.1673 119.565 29.1838C119.516 29.2334 119.451 29.2665 119.386 29.2831C119.255 29.3327 119.125 29.3823 118.994 29.432C118.815 29.4816 118.619 29.5147 118.439 29.5478C118.211 29.5809 117.982 29.5974 117.754 29.5974C117.379 29.5974 117.003 29.5478 116.661 29.4154C116.35 29.2996 116.089 29.1342 115.861 28.886C115.632 28.6379 115.469 28.3401 115.371 28.0092C115.257 27.6121 115.192 27.1985 115.208 26.7849C115.208 26.3879 115.257 25.9743 115.371 25.5937C115.469 25.2629 115.632 24.9651 115.861 24.7004C116.073 24.4522 116.334 24.2537 116.628 24.1379C116.954 24.0055 117.297 23.9393 117.64 23.9393C117.982 23.9228 118.341 23.989 118.651 24.1379C118.912 24.2537 119.157 24.4357 119.337 24.6673C119.516 24.8989 119.647 25.1636 119.728 25.4448C119.81 25.7592 119.859 26.0735 119.859 26.3879L119.908 26.5368ZM118.978 26.2555C119.01 25.8419 118.896 25.4283 118.651 25.0809C118.39 24.7831 118.015 24.6342 117.64 24.6507C117.427 24.6507 117.215 24.6838 117.036 24.7831C116.873 24.8658 116.726 24.9816 116.595 25.1305C116.481 25.2794 116.383 25.4448 116.318 25.6434C116.253 25.8419 116.22 26.0404 116.204 26.2555H118.978ZM125.701 29.3327C125.701 29.3658 125.701 29.3823 125.668 29.4154C125.652 29.432 125.619 29.4651 125.603 29.4651C125.554 29.4816 125.505 29.4982 125.456 29.4982C125.375 29.5147 125.309 29.5147 125.228 29.5147C125.146 29.5147 125.064 29.5147 124.999 29.4982C124.95 29.4982 124.901 29.4816 124.852 29.4651C124.82 29.4485 124.803 29.432 124.771 29.4154C124.754 29.3989 124.754 29.3658 124.754 29.3327V26.3217C124.754 26.0901 124.738 25.8419 124.689 25.6103C124.657 25.4448 124.591 25.2959 124.493 25.147C124.412 25.0147 124.297 24.9154 124.167 24.8493C124.02 24.7831 123.857 24.7334 123.694 24.75C123.449 24.75 123.204 24.8493 122.992 24.9982C122.715 25.2132 122.47 25.4614 122.258 25.7426V29.3493C122.258 29.3823 122.258 29.3989 122.225 29.432C122.209 29.4651 122.176 29.4816 122.143 29.4816C122.095 29.4981 122.046 29.5147 121.997 29.5147C121.915 29.5312 121.85 29.5312 121.768 29.5312C121.687 29.5312 121.621 29.5312 121.54 29.5147C121.491 29.5147 121.442 29.4981 121.393 29.4816C121.36 29.4651 121.344 29.4485 121.311 29.432C121.295 29.4154 121.295 29.3823 121.295 29.3493V24.1875C121.295 24.1544 121.295 24.1379 121.311 24.1048C121.328 24.0717 121.344 24.0551 121.377 24.0551C121.425 24.0386 121.458 24.022 121.507 24.022C121.572 24.022 121.654 24.0055 121.719 24.0055C121.784 24.0055 121.85 24.0055 121.931 24.022C121.98 24.022 122.013 24.0386 122.062 24.0551C122.095 24.0717 122.111 24.0882 122.127 24.1048C122.143 24.1213 122.143 24.1544 122.143 24.1875V24.8658C122.388 24.5845 122.666 24.3364 122.992 24.1544C123.253 24.0055 123.547 23.9228 123.857 23.9228C124.151 23.9228 124.444 23.9724 124.705 24.1048C124.918 24.2206 125.113 24.3695 125.26 24.568C125.407 24.7665 125.505 25.0147 125.57 25.2463C125.636 25.5607 125.668 25.875 125.668 26.1893L125.701 29.3327ZM129.944 28.9522C129.944 29.0349 129.944 29.1342 129.911 29.2169C129.911 29.2665 129.878 29.3162 129.846 29.3658C129.813 29.3989 129.764 29.432 129.715 29.4485C129.65 29.4816 129.585 29.4981 129.503 29.5147C129.421 29.5312 129.34 29.5478 129.258 29.5643C128.948 29.614 128.622 29.5809 128.328 29.4816C128.149 29.4154 127.985 29.2996 127.871 29.1673C127.741 29.0018 127.659 28.8198 127.61 28.6213C127.545 28.3732 127.529 28.1084 127.529 27.8437V24.8162H126.811C126.745 24.8162 126.696 24.7831 126.68 24.7169C126.647 24.6176 126.631 24.5184 126.631 24.4191C126.631 24.3529 126.631 24.3033 126.647 24.2371C126.647 24.1875 126.664 24.1544 126.68 24.1048C126.696 24.0717 126.713 24.0551 126.745 24.0386C126.778 24.022 126.794 24.022 126.827 24.022H127.529V22.7978C127.529 22.7647 127.529 22.7481 127.545 22.7316C127.561 22.6985 127.594 22.682 127.626 22.6654C127.675 22.6489 127.724 22.6323 127.773 22.6323C127.92 22.6158 128.083 22.6158 128.23 22.6323C128.279 22.6323 128.328 22.6489 128.377 22.6654C128.41 22.682 128.426 22.6985 128.459 22.7316C128.475 22.7481 128.475 22.7812 128.475 22.7978V24.022H129.764C129.797 24.022 129.813 24.022 129.846 24.0386C129.878 24.0551 129.895 24.0717 129.895 24.1048C129.911 24.1379 129.927 24.1875 129.927 24.2371C129.927 24.3033 129.944 24.3529 129.944 24.4191C129.944 24.5184 129.927 24.6176 129.895 24.7169C129.862 24.7665 129.813 24.7996 129.764 24.8162H128.475V27.6783C128.459 27.9595 128.508 28.2243 128.622 28.4724C128.736 28.6544 128.948 28.7702 129.177 28.7371C129.258 28.7371 129.324 28.7371 129.405 28.7206C129.47 28.704 129.519 28.6875 129.585 28.6709L129.715 28.6213C129.748 28.6048 129.78 28.5882 129.813 28.5882C129.829 28.5882 129.846 28.5882 129.862 28.6048C129.878 28.6213 129.895 28.6379 129.895 28.6544C129.911 28.6875 129.911 28.7206 129.927 28.7702C129.927 28.8198 129.944 28.886 129.944 28.9522ZM134.366 27.9265C134.366 28.1746 134.317 28.4062 134.219 28.6379C134.121 28.8364 133.991 29.0184 133.811 29.1507C133.615 29.2996 133.403 29.3989 133.175 29.4651C132.914 29.5478 132.636 29.5809 132.359 29.5809C132.179 29.5809 132.016 29.5643 131.837 29.5312C131.69 29.5147 131.543 29.4651 131.396 29.432C131.282 29.3989 131.168 29.3493 131.07 29.2996C131.004 29.2665 130.939 29.2169 130.874 29.1673C130.825 29.1176 130.792 29.068 130.776 29.0018C130.743 28.8529 130.743 28.6875 130.76 28.5386C130.76 28.5055 130.776 28.4559 130.792 28.4228C130.809 28.3732 130.857 28.3401 130.906 28.3401C130.972 28.3566 131.037 28.3732 131.086 28.4228C131.168 28.4724 131.265 28.522 131.38 28.5882C131.51 28.6544 131.657 28.704 131.804 28.7537C131.983 28.8033 132.179 28.8364 132.359 28.8364C132.506 28.8364 132.652 28.8198 132.783 28.7868C132.897 28.7537 133.011 28.704 133.109 28.6379C133.207 28.5717 133.273 28.489 133.322 28.3732C133.37 28.2573 133.403 28.125 133.403 28.0092C133.403 27.8768 133.37 27.7445 133.289 27.6452C133.207 27.5459 133.109 27.4467 132.995 27.3805C132.865 27.2978 132.734 27.2316 132.587 27.182L132.13 27C131.967 26.9338 131.82 26.8676 131.657 26.7849C131.51 26.7022 131.363 26.6029 131.249 26.4871C130.988 26.2224 130.841 25.8584 130.857 25.4779C130.857 25.2794 130.89 25.0809 130.972 24.8989C131.053 24.7169 131.168 24.5515 131.314 24.4191C131.478 24.2702 131.69 24.1544 131.886 24.0882C132.147 24.0055 132.424 23.9559 132.701 23.9559C132.832 23.9559 132.979 23.9724 133.109 23.989C133.24 24.0055 133.354 24.0386 133.468 24.0882C133.566 24.1213 133.664 24.1544 133.746 24.204C133.811 24.2371 133.86 24.2702 133.925 24.3198C133.958 24.3364 133.974 24.3695 134.007 24.4026C134.023 24.4191 134.023 24.4522 134.04 24.4853C134.04 24.5184 134.056 24.5515 134.056 24.5845C134.056 24.6342 134.072 24.6838 134.056 24.7334C134.056 24.7831 134.056 24.8493 134.056 24.8989C134.056 24.932 134.04 24.9816 134.023 25.0147C134.007 25.0478 133.991 25.0643 133.974 25.0809C133.958 25.0974 133.942 25.0974 133.909 25.0974C133.86 25.0974 133.811 25.0643 133.762 25.0312C133.681 24.9816 133.599 24.932 133.517 24.8989C133.403 24.8493 133.289 24.7996 133.158 24.7665C133.011 24.7169 132.848 24.7004 132.685 24.7004C132.538 24.7004 132.408 24.7169 132.261 24.75C132.147 24.7831 132.049 24.8327 131.967 24.8989C131.886 24.9651 131.837 25.0478 131.788 25.1305C131.739 25.2298 131.722 25.329 131.722 25.4283C131.722 25.5607 131.755 25.693 131.837 25.8088C131.918 25.9081 132.016 26.0073 132.13 26.0735C132.261 26.1562 132.391 26.2224 132.538 26.272L133.011 26.454C133.175 26.5202 133.322 26.5864 133.485 26.6691C133.632 26.7518 133.778 26.8511 133.893 26.9669C134.023 27.0827 134.121 27.2316 134.186 27.3805C134.333 27.5294 134.366 27.7279 134.366 27.9265Z" fill="white"/>
<path d="M41.7268 15.932C41.7268 16.0643 41.7268 16.1967 41.7105 16.3125C41.6942 16.3952 41.6779 16.4945 41.6452 16.5772C41.6289 16.6434 41.5963 16.693 41.5473 16.7261C41.5147 16.7592 41.4657 16.7757 41.4168 16.7757H36.9292C36.7824 16.7757 36.6192 16.7261 36.505 16.6268C36.3907 16.4945 36.3255 16.3125 36.3418 16.147V7.1305C36.3418 7.08087 36.3581 7.03124 36.3907 6.99815C36.4397 6.94852 36.4886 6.91543 36.5539 6.89888C36.6518 6.86579 36.7497 6.84925 36.864 6.83271C37.1903 6.79962 37.5167 6.79962 37.8267 6.83271C37.9247 6.84925 38.0226 6.86579 38.1368 6.89888C38.2021 6.91543 38.251 6.94852 38.3 6.99815C38.3326 7.03124 38.3489 7.08087 38.3489 7.1305V15.1213H41.4168C41.4657 15.1213 41.5147 15.1379 41.5473 15.1709C41.5963 15.204 41.6289 15.2537 41.6452 15.3033C41.6779 15.386 41.6942 15.4687 41.6942 15.5515C41.7268 15.6838 41.7268 15.8162 41.7268 15.932ZM44.7131 16.5276C44.7131 16.5772 44.6968 16.6268 44.6641 16.6599C44.6152 16.7095 44.5662 16.7426 44.5009 16.7592C44.403 16.7923 44.3051 16.8088 44.2072 16.8088C43.8972 16.8254 43.5871 16.8254 43.2771 16.8088C43.1792 16.7923 43.0812 16.7757 42.9833 16.7592C42.9181 16.7426 42.8691 16.7095 42.8201 16.6599C42.7875 16.6268 42.7712 16.5772 42.7712 16.5276V9.69484C42.7712 9.64521 42.7875 9.59557 42.8201 9.56249C42.8691 9.51285 42.9181 9.47977 42.9833 9.46322C43.0812 9.43013 43.1792 9.41359 43.2771 9.39704C43.5871 9.36396 43.8972 9.36396 44.2072 9.39704C44.3051 9.41359 44.403 9.43013 44.5009 9.46322C44.5662 9.47977 44.6152 9.51285 44.6641 9.56249C44.6968 9.59557 44.7131 9.64521 44.7131 9.69484V16.5276ZM44.8599 7.34557C44.8599 7.72609 44.7783 8.00734 44.6315 8.15624C44.4846 8.30513 44.1909 8.37131 43.7666 8.37131C43.3423 8.37131 43.0486 8.30513 42.9017 8.15624C42.7549 8.00734 42.6733 7.75918 42.6733 7.37866C42.6733 6.99815 42.7549 6.7169 42.9017 6.568C43.0486 6.4191 43.3423 6.33638 43.7829 6.33638C44.2235 6.33638 44.5009 6.40256 44.6478 6.55146C44.7947 6.70035 44.8599 6.9816 44.8599 7.34557ZM52.807 9.66175C52.807 9.69484 52.807 9.71138 52.807 9.76102C52.807 9.81065 52.807 9.82719 52.7906 9.87682C52.7743 9.92646 52.7743 9.97609 52.758 10.0257C52.7417 10.0754 52.7254 10.1415 52.709 10.2243L50.6856 16.4118C50.6693 16.4945 50.6366 16.5606 50.5877 16.6268C50.5387 16.693 50.4571 16.7261 50.3755 16.7592C50.245 16.7923 50.1144 16.8088 49.9676 16.8254C49.8044 16.8419 49.5759 16.8419 49.3148 16.8419C49.0537 16.8419 48.8253 16.8419 48.6621 16.8254C48.5316 16.8088 48.401 16.7923 48.2705 16.7592C48.1889 16.7426 48.1236 16.693 48.0583 16.6268C48.0094 16.5606 47.9767 16.4945 47.9604 16.4283L45.9369 10.2408C45.9043 10.1415 45.888 10.0423 45.8717 9.95954C45.8554 9.89337 45.8554 9.84374 45.839 9.77756C45.839 9.74447 45.839 9.71138 45.839 9.67829C45.839 9.62866 45.8554 9.57903 45.8717 9.54594C45.9043 9.49631 45.9696 9.46322 46.0185 9.44668C46.1164 9.41359 46.2144 9.39704 46.3123 9.39704C46.4428 9.3805 46.5897 9.3805 46.7855 9.3805C46.9976 9.3805 47.1608 9.3805 47.2914 9.39704C47.3893 9.41359 47.4872 9.43013 47.5851 9.44668C47.6504 9.46322 47.6993 9.49631 47.7483 9.54594C47.7809 9.59557 47.8136 9.64521 47.8299 9.71138L49.3638 14.7408L49.4128 14.9393L49.4617 14.7408L50.963 9.71138C50.9793 9.64521 50.9956 9.59557 51.0283 9.54594C51.0609 9.49631 51.1262 9.46322 51.1914 9.44668C51.2894 9.41359 51.3873 9.39704 51.4689 9.39704C51.632 9.3805 51.7789 9.3805 51.9421 9.3805C52.1216 9.3805 52.2848 9.3805 52.399 9.39704C52.4969 9.39704 52.5785 9.41359 52.6764 9.44668C52.7254 9.46322 52.7743 9.49631 52.807 9.54594C52.807 9.57903 52.807 9.62866 52.807 9.66175ZM58.2736 10.307C58.2736 10.489 58.2736 10.6379 58.2573 10.7537C58.2573 10.8529 58.241 10.9356 58.2083 11.0349C58.192 11.0845 58.1594 11.1342 58.1267 11.1673C58.0941 11.2004 58.0451 11.2004 57.9962 11.2004C57.9472 11.2004 57.8983 11.1838 57.8656 11.1673L57.6861 11.1176C57.6209 11.1011 57.5556 11.0845 57.474 11.068C57.3924 11.0515 57.3108 11.0349 57.2292 11.0349C57.115 11.0349 57.0171 11.0515 56.9029 11.1011C56.7886 11.1507 56.6744 11.2169 56.5765 11.2996C56.4459 11.4154 56.3154 11.5312 56.2175 11.6636C56.0706 11.8456 55.9401 12.0276 55.8258 12.2261V16.4945C55.8258 16.5441 55.8095 16.5937 55.7769 16.6268C55.7279 16.6765 55.679 16.7095 55.6137 16.7261C55.5158 16.7592 55.4179 16.7757 55.32 16.7757C55.0099 16.7923 54.6999 16.7923 54.3898 16.7757C54.2919 16.7592 54.194 16.7426 54.0961 16.7261C54.0308 16.7095 53.9819 16.6765 53.9329 16.6268C53.9003 16.5937 53.884 16.5441 53.884 16.4945V9.67829C53.884 9.62866 53.9003 9.57903 53.9166 9.54594C53.9492 9.49631 53.9982 9.46322 54.0472 9.44668C54.1287 9.41359 54.2103 9.39704 54.2919 9.39704C54.4225 9.3805 54.553 9.3805 54.6836 9.3805C54.8141 9.3805 54.9447 9.3805 55.0915 9.39704C55.1731 9.41359 55.2547 9.43013 55.3363 9.44668C55.3853 9.46322 55.4342 9.49631 55.4668 9.54594C55.4995 9.57903 55.4995 9.62866 55.4995 9.67829V10.5386C55.6463 10.307 55.8258 10.1084 56.0054 9.90991C56.1359 9.76102 56.2991 9.62866 56.4459 9.51285C56.5765 9.43013 56.7234 9.34741 56.8702 9.31432C57.0008 9.28124 57.1476 9.26469 57.2945 9.26469C57.3598 9.26469 57.4414 9.26469 57.5066 9.28124C57.5882 9.29778 57.6698 9.29778 57.7351 9.31432C57.8004 9.33087 57.882 9.34741 57.9472 9.3805C57.9962 9.39704 58.0451 9.41359 58.0778 9.44668C58.1104 9.46322 58.1267 9.49631 58.1431 9.5294C58.1594 9.57903 58.1757 9.61212 58.1757 9.66175C58.192 9.74447 58.192 9.82719 58.192 9.90991C58.2736 9.99263 58.2736 10.125 58.2736 10.307ZM66.0738 13.0368C66.0738 13.5827 66.0085 14.1121 65.8453 14.625C65.6984 15.0882 65.47 15.5018 65.1599 15.8658C64.8336 16.2298 64.4419 16.4945 64.0013 16.6765C63.4791 16.875 62.9243 16.9743 62.3695 16.9577C61.831 16.9743 61.3088 16.8915 60.8029 16.7095C60.3787 16.5606 60.0033 16.3125 59.6933 15.9816C59.3832 15.6342 59.1711 15.2371 59.0406 14.7904C58.8937 14.261 58.8284 13.7151 58.8447 13.1691C58.8447 12.6231 58.91 12.0937 59.0732 11.5643C59.2201 11.1011 59.4485 10.6875 59.7749 10.3235C60.1013 9.97609 60.4929 9.69484 60.9335 9.5294C61.4557 9.33087 61.9942 9.2316 62.549 9.24815C63.0875 9.2316 63.6097 9.31432 64.1156 9.49631C64.5235 9.64521 64.8988 9.89337 65.2089 10.2243C65.5189 10.5717 65.7311 10.9687 65.8616 11.4154C66.0085 11.9448 66.0901 12.4908 66.0738 13.0368ZM64.1156 13.1029C64.1156 12.7886 64.0992 12.4743 64.034 12.1765C63.985 11.9118 63.9034 11.6636 63.7566 11.432C63.6423 11.2169 63.4628 11.0515 63.2507 10.9356C63.0059 10.8033 62.7285 10.7537 62.4511 10.7537C62.19 10.7537 61.9452 10.8033 61.7004 10.9026C61.4883 11.0018 61.3088 11.1673 61.1783 11.3658C61.0314 11.5809 60.9335 11.829 60.8682 12.0937C60.8029 12.4081 60.754 12.739 60.7703 13.0698C60.7703 13.3842 60.8029 13.6985 60.8519 13.9963C60.9008 14.261 60.9988 14.5092 61.1293 14.7408C61.2435 14.9559 61.423 15.1213 61.6352 15.2206C61.8799 15.3364 62.1574 15.4026 62.4348 15.386C62.6959 15.386 62.957 15.3364 63.1854 15.2206C63.3976 15.1213 63.577 14.9559 63.7076 14.7573C63.8545 14.5423 63.9524 14.2941 64.0176 14.0294C64.0829 13.7151 64.1156 13.3842 64.1156 13.0533V13.1029ZM77.4803 16.5276C77.4803 16.5772 77.4639 16.6268 77.4476 16.6599C77.415 16.7095 77.366 16.7426 77.3171 16.7592C77.2355 16.7923 77.1539 16.8088 77.0723 16.8088C76.9744 16.8254 76.8438 16.8254 76.697 16.8254C76.5501 16.8254 76.4033 16.8254 76.3053 16.8088C76.2238 16.7923 76.1422 16.7757 76.0606 16.7592C76.0116 16.7426 75.9627 16.7095 75.93 16.6599C75.8974 16.6103 75.8811 16.5606 75.8811 16.511V15.75C75.571 16.0974 75.1957 16.3952 74.7877 16.6268C74.3961 16.8419 73.9555 16.9412 73.5149 16.9412C73.058 16.9577 72.6174 16.8584 72.2094 16.6434C71.8668 16.4448 71.5567 16.1636 71.3446 15.8327C71.1161 15.4687 70.9366 15.0551 70.855 14.6415C70.7571 14.1618 70.7082 13.682 70.7082 13.2022C70.7082 12.6562 70.7734 12.0937 70.904 11.5643C71.0182 11.1176 71.1977 10.704 71.4751 10.3235C71.7199 9.99263 72.0463 9.71138 72.4216 9.5294C72.8132 9.34741 73.2538 9.24815 73.6944 9.24815C74.0534 9.24815 74.3961 9.33087 74.7225 9.47977C75.0651 9.66175 75.3752 9.89337 75.6363 10.1746V6.46874C75.6363 6.4191 75.6526 6.36947 75.6852 6.33638C75.7179 6.28675 75.7832 6.25366 75.8321 6.23712C75.93 6.20403 76.0279 6.18749 76.1258 6.17094C76.4359 6.13785 76.7459 6.13785 77.056 6.17094C77.1539 6.18749 77.2518 6.20403 77.3497 6.23712C77.415 6.25366 77.4639 6.28675 77.4966 6.33638C77.5292 6.36947 77.5455 6.4191 77.5455 6.46874L77.4803 16.5276ZM75.5873 11.9448C75.3589 11.647 75.0978 11.3823 74.8041 11.1507C74.5756 10.9687 74.2982 10.886 74.0208 10.8695C73.7923 10.8695 73.5639 10.9356 73.3844 11.0515C73.2049 11.1838 73.058 11.3493 72.9601 11.5478C72.8459 11.7629 72.7643 12.011 72.7153 12.2592C72.6664 12.5239 72.6337 12.7886 72.6337 13.0533C72.6337 13.3345 72.65 13.5993 72.699 13.8805C72.7479 14.1287 72.8132 14.3768 72.9274 14.6084C73.0254 14.807 73.1559 14.989 73.3354 15.1213C73.5312 15.2537 73.7597 15.3198 73.9881 15.3198C74.1187 15.3198 74.2492 15.3033 74.3635 15.2702C74.494 15.2206 74.6246 15.1709 74.7388 15.0882C74.8856 14.989 75.0162 14.8731 75.1304 14.7408C75.2936 14.5754 75.4405 14.4099 75.571 14.2445V11.9448H75.5873ZM85.6231 12.9044C85.6394 13.0864 85.5905 13.2849 85.4599 13.4338C85.3457 13.5496 85.1988 13.6158 85.0356 13.5993H80.9234C80.9234 13.864 80.9561 14.1452 81.0213 14.3934C81.0866 14.625 81.2008 14.8235 81.3477 14.989C81.5109 15.1544 81.7067 15.2868 81.9188 15.3695C82.1963 15.4687 82.4737 15.5018 82.7674 15.5018C83.0611 15.5018 83.3549 15.4853 83.6486 15.4356C83.877 15.386 84.0892 15.3364 84.3013 15.2702C84.4808 15.204 84.6277 15.1544 84.7582 15.1048C84.8561 15.0551 84.954 15.0386 85.052 15.0386C85.0846 15.0386 85.1335 15.0386 85.1662 15.0717C85.1988 15.0882 85.2315 15.1213 85.2478 15.1709C85.2641 15.2371 85.2804 15.3033 85.2804 15.3695C85.2804 15.4522 85.2967 15.568 85.2967 15.6838C85.2967 15.7996 85.2967 15.8989 85.2967 15.9651C85.2967 16.0312 85.2804 16.0974 85.2804 16.1636C85.2804 16.2132 85.2641 16.2629 85.2315 16.3125C85.2151 16.3456 85.1825 16.3952 85.1499 16.4283C85.0683 16.4945 84.9704 16.5441 84.8725 16.5772C84.693 16.6599 84.4971 16.7095 84.3176 16.7592C84.0565 16.8254 83.7954 16.875 83.5344 16.9246C83.2243 16.9743 82.9143 16.9908 82.5879 16.9908C82.0494 17.0073 81.5272 16.9246 81.005 16.7592C80.5807 16.6268 80.1891 16.3787 79.8627 16.0478C79.5527 15.7169 79.3242 15.3033 79.1937 14.8731C79.0305 14.3272 78.9652 13.7647 78.9652 13.2022C78.9652 12.6397 79.0468 12.0937 79.21 11.5643C79.3405 11.1011 79.5853 10.6875 79.8954 10.3235C80.1891 9.97609 80.5644 9.71138 80.9724 9.54594C81.9025 9.19852 82.9306 9.18197 83.8607 9.5294C84.236 9.67829 84.5787 9.92646 84.8561 10.2243C85.1172 10.5386 85.2967 10.9026 85.411 11.2831C85.5415 11.7132 85.5905 12.1599 85.5905 12.6231L85.6231 12.9044ZM83.7791 12.3584C83.7954 11.8125 83.6812 11.3989 83.4528 11.0845C83.2243 10.7702 82.8653 10.6213 82.3921 10.6213C82.1799 10.6213 81.9515 10.6709 81.7557 10.7537C81.5762 10.8364 81.4293 10.9687 81.2987 11.1176C81.1682 11.2831 81.0866 11.4651 81.0213 11.6636C80.9561 11.8787 80.9234 12.1103 80.9071 12.3419L83.7791 12.3584ZM96.6053 15.9981C96.6053 16.1305 96.6053 16.2463 96.589 16.3787C96.589 16.4614 96.5564 16.5441 96.5401 16.6268C96.5237 16.6765 96.4911 16.7261 96.4422 16.7592C96.4095 16.7923 96.3605 16.8088 96.3116 16.8088H91.3998C91.2529 16.8088 91.0897 16.7592 90.9755 16.6599C90.8613 16.5276 90.796 16.3456 90.8123 16.1801V7.49447C90.796 7.31249 90.8613 7.1305 90.9755 7.01469C91.0897 6.91543 91.2366 6.86579 91.3998 6.86579H96.2953C96.3442 6.86579 96.3769 6.88234 96.4095 6.89888C96.4585 6.93197 96.4748 6.9816 96.5074 7.03124C96.5237 7.11396 96.5401 7.19668 96.5564 7.2794C96.5727 7.41175 96.5727 7.52756 96.5727 7.65991C96.5727 7.77572 96.5727 7.90807 96.5564 8.02388C96.5401 8.1066 96.5237 8.18932 96.5074 8.27204C96.4911 8.32168 96.4585 8.37131 96.4095 8.4044C96.3769 8.43749 96.3279 8.45403 96.2953 8.43749H92.7868V10.8529H95.7241C95.7731 10.8529 95.8057 10.8695 95.8547 10.886C95.9036 10.9191 95.9363 10.9687 95.9526 11.0184C95.9852 11.1011 96.0016 11.1673 96.0016 11.25C96.0179 11.4981 96.0179 11.7298 96.0016 11.9779C96.0016 12.0606 95.9689 12.1434 95.9526 12.2095C95.9363 12.2592 95.9036 12.3088 95.8547 12.3419C95.822 12.375 95.7731 12.375 95.7241 12.375H92.7868V15.1709H96.2953C96.3442 15.1709 96.3769 15.1875 96.4258 15.204C96.4748 15.2371 96.5074 15.2868 96.5237 15.3364C96.5564 15.4191 96.5727 15.5018 96.5727 15.5845C96.6053 15.7334 96.6053 15.8658 96.6053 15.9981ZM100.163 16.5276C100.163 16.5772 100.146 16.6268 100.114 16.6599C100.065 16.7095 100.016 16.7426 99.9506 16.7592C99.8527 16.7923 99.7548 16.8088 99.6568 16.8088C99.3468 16.8254 99.0368 16.8254 98.7267 16.8088C98.6288 16.7923 98.5309 16.7757 98.433 16.7592C98.3677 16.7426 98.3187 16.7095 98.2698 16.6599C98.2372 16.6268 98.2208 16.5772 98.2208 16.5276V6.43565C98.2208 6.38602 98.2372 6.33638 98.2698 6.30329C98.3187 6.25366 98.3677 6.22057 98.433 6.20403C98.5309 6.17094 98.6288 6.1544 98.7267 6.13785C99.0368 6.10477 99.3468 6.10477 99.6568 6.13785C99.7548 6.1544 99.8527 6.17094 99.9506 6.20403C100.016 6.22057 100.065 6.25366 100.114 6.30329C100.146 6.33638 100.163 6.38602 100.163 6.43565V16.5276ZM108.877 13.0368C108.877 13.5827 108.811 14.1121 108.648 14.625C108.501 15.0882 108.273 15.5018 107.963 15.8658C107.637 16.2132 107.245 16.4945 106.804 16.6765C106.282 16.875 105.727 16.9743 105.172 16.9577C104.634 16.9743 104.112 16.8915 103.606 16.7095C103.182 16.5606 102.806 16.3125 102.496 15.9816C102.186 15.6342 101.974 15.2371 101.844 14.7904C101.697 14.261 101.631 13.7316 101.631 13.1856C101.631 12.6397 101.697 12.1103 101.86 11.5809C102.007 11.1176 102.251 10.6875 102.562 10.3401C102.872 9.99263 103.263 9.71138 103.704 9.54594C104.226 9.34741 104.781 9.24815 105.336 9.26469C105.874 9.24815 106.396 9.33087 106.919 9.51285C107.343 9.66175 107.718 9.90991 108.012 10.2408C108.322 10.5882 108.534 10.9853 108.665 11.432C108.828 11.9448 108.893 12.4908 108.877 13.0368ZM106.919 13.1029C106.919 12.7886 106.902 12.4743 106.837 12.1765C106.788 11.9118 106.706 11.6636 106.56 11.432C106.445 11.2169 106.266 11.0515 106.054 10.9356C105.809 10.8033 105.531 10.7537 105.254 10.7537C104.993 10.7537 104.748 10.8033 104.52 10.9026C104.308 11.0018 104.128 11.1673 103.998 11.3658C103.851 11.5809 103.753 11.829 103.687 12.0937C103.622 12.4081 103.573 12.739 103.59 13.0698C103.59 13.3842 103.622 13.6985 103.671 13.9963C103.72 14.261 103.818 14.5092 103.949 14.7408C104.063 14.9559 104.242 15.1213 104.454 15.2206C104.699 15.3364 104.977 15.4026 105.238 15.386C105.499 15.386 105.76 15.3364 105.988 15.2206C106.201 15.1213 106.38 14.9559 106.511 14.7573C106.657 14.5423 106.755 14.2941 106.821 14.0294C106.886 13.7151 106.919 13.3842 106.919 13.0533V13.1029ZM116.465 10.1581C116.481 10.3401 116.448 10.522 116.383 10.704C116.334 10.8198 116.269 10.886 116.187 10.886H115.404C115.518 11.0018 115.6 11.1507 115.649 11.2996C115.698 11.4651 115.73 11.614 115.73 11.7794C115.73 12.1434 115.665 12.5073 115.535 12.8382C115.404 13.136 115.208 13.4007 114.963 13.6158C114.702 13.8309 114.409 13.9963 114.082 14.0956C113.707 14.2114 113.315 14.261 112.924 14.261C112.712 14.261 112.499 14.2279 112.304 14.1783C112.14 14.1452 111.993 14.079 111.847 13.9963C111.781 14.0625 111.732 14.1452 111.683 14.2279C111.634 14.3272 111.602 14.4265 111.618 14.5257C111.618 14.6746 111.683 14.807 111.814 14.8897C111.977 14.989 112.157 15.0551 112.353 15.0386L114.001 15.1048C114.343 15.1213 114.686 15.1709 115.029 15.2702C115.306 15.3529 115.567 15.4853 115.779 15.6673C115.975 15.8327 116.138 16.0478 116.253 16.2794C116.367 16.5441 116.416 16.8254 116.416 17.1066C116.416 17.7849 116.089 18.4301 115.535 18.8272C115.208 19.0588 114.833 19.2408 114.425 19.3566C113.919 19.489 113.397 19.5551 112.875 19.5551C112.385 19.5551 111.896 19.522 111.406 19.4228C111.063 19.3566 110.721 19.2243 110.411 19.0423C109.937 18.7776 109.644 18.2647 109.66 17.7022C109.66 17.5368 109.676 17.3713 109.725 17.2224C109.774 17.0735 109.839 16.9246 109.921 16.7757C110.003 16.6268 110.117 16.4945 110.231 16.3787C110.362 16.2463 110.492 16.114 110.639 16.0147C110.215 15.7996 109.954 15.3529 109.954 14.8731C109.954 14.5919 110.019 14.2941 110.15 14.0459C110.296 13.7978 110.476 13.5662 110.688 13.3676C110.509 13.1856 110.362 12.9706 110.264 12.7224C110.15 12.4246 110.101 12.1103 110.101 11.7794C110.101 11.4154 110.166 11.0515 110.313 10.704C110.443 10.4062 110.639 10.125 110.884 9.90991C111.145 9.69484 111.439 9.51285 111.765 9.41359C112.14 9.29778 112.516 9.24815 112.907 9.24815C113.103 9.24815 113.315 9.26469 113.511 9.28124C113.691 9.29778 113.87 9.34741 114.05 9.3805H116.187C116.269 9.3805 116.35 9.43013 116.399 9.54594C116.465 9.77756 116.481 9.95955 116.465 10.1581ZM114.017 11.7794C114.066 11.2004 113.642 10.6709 113.071 10.6213C113.005 10.6213 112.924 10.6213 112.858 10.6213C112.695 10.6213 112.516 10.6544 112.369 10.7206C112.238 10.7868 112.108 10.8695 112.01 10.9853C111.912 11.1011 111.847 11.2334 111.798 11.3658C111.749 11.5147 111.732 11.6636 111.732 11.829C111.716 12.1434 111.83 12.4412 112.026 12.6562C112.255 12.8713 112.565 12.9871 112.875 12.954C113.038 12.954 113.201 12.9209 113.364 12.8548C113.495 12.8051 113.625 12.7059 113.723 12.6066C113.821 12.4908 113.886 12.375 113.935 12.2426C113.984 12.0937 114.017 11.9448 114.017 11.7794ZM114.458 17.239C114.474 17.0239 114.36 16.8254 114.18 16.7095C113.952 16.5772 113.691 16.511 113.43 16.511L112.075 16.4779C111.961 16.5606 111.863 16.6599 111.765 16.7592C111.7 16.8419 111.634 16.9246 111.569 17.0239C111.52 17.0901 111.488 17.1728 111.471 17.2555C111.455 17.3382 111.439 17.4209 111.439 17.4871C111.439 17.7353 111.586 17.9669 111.814 18.0662C112.157 18.2151 112.516 18.2812 112.891 18.2647C113.136 18.2647 113.381 18.2481 113.625 18.182C113.805 18.1323 113.952 18.0496 114.099 17.9504C114.213 17.8676 114.294 17.7518 114.36 17.6195C114.441 17.4871 114.458 17.3548 114.458 17.239ZM119.647 16.5276C119.647 16.5772 119.63 16.6268 119.598 16.6599C119.549 16.7095 119.5 16.7426 119.435 16.7592C119.337 16.7923 119.239 16.8088 119.141 16.8088C118.831 16.8254 118.521 16.8254 118.211 16.8088C118.113 16.7923 118.015 16.7757 117.917 16.7592C117.852 16.7426 117.803 16.7095 117.77 16.6599C117.738 16.6268 117.721 16.5772 117.721 16.5276V9.69484C117.721 9.64521 117.738 9.59557 117.77 9.56249C117.803 9.51285 117.868 9.47977 117.917 9.46322C118.015 9.43013 118.113 9.41359 118.211 9.39704C118.521 9.36396 118.831 9.36396 119.141 9.39704C119.239 9.41359 119.337 9.43013 119.435 9.46322C119.5 9.47977 119.549 9.51285 119.598 9.56249C119.63 9.59557 119.647 9.64521 119.647 9.69484V16.5276ZM119.794 7.36212C119.794 7.75918 119.712 8.02388 119.565 8.17278C119.402 8.32168 119.125 8.38785 118.7 8.38785C118.276 8.38785 117.982 8.32168 117.835 8.17278C117.689 8.02388 117.591 7.77572 117.591 7.39521C117.591 7.01469 117.672 6.73344 117.819 6.58454C117.966 6.43565 118.26 6.35293 118.7 6.35293C119.141 6.35293 119.418 6.4191 119.565 6.568C119.712 6.7169 119.794 6.9816 119.794 7.36212ZM128.361 13.0368C128.361 13.5827 128.296 14.1121 128.132 14.625C127.985 15.0882 127.757 15.5018 127.447 15.8658C127.121 16.2298 126.729 16.4945 126.288 16.6765C125.766 16.875 125.211 16.9743 124.657 16.9577C124.118 16.9743 123.596 16.8915 123.09 16.7095C122.666 16.5606 122.29 16.2959 121.997 15.9816C121.687 15.6342 121.474 15.2371 121.344 14.7904C121.197 14.261 121.115 13.7316 121.132 13.1856C121.132 12.6397 121.197 12.1103 121.36 11.5809C121.507 11.1176 121.736 10.704 122.046 10.3401C122.372 9.99263 122.764 9.71138 123.204 9.54594C123.726 9.34741 124.265 9.24815 124.82 9.26469C125.358 9.24815 125.897 9.33087 126.403 9.51285C126.827 9.66175 127.202 9.90991 127.496 10.2408C127.806 10.5882 128.018 10.9853 128.149 11.432C128.312 11.9448 128.377 12.4908 128.361 13.0368ZM126.403 13.1029C126.403 12.7886 126.386 12.4743 126.321 12.1765C126.272 11.9118 126.19 11.6636 126.044 11.432C125.929 11.2169 125.75 11.0515 125.538 10.9356C125.293 10.8198 125.032 10.7537 124.754 10.7702C124.493 10.7702 124.249 10.8198 124.004 10.9191C123.792 11.0184 123.612 11.1838 123.482 11.3823C123.335 11.5974 123.237 11.8456 123.172 12.1103C123.106 12.4246 123.057 12.7555 123.074 13.0864C123.074 13.4007 123.106 13.7151 123.155 14.0129C123.204 14.2776 123.302 14.5257 123.433 14.7573C123.547 14.9724 123.726 15.1379 123.939 15.2371C124.183 15.3529 124.461 15.4191 124.722 15.4026C124.983 15.4026 125.244 15.3529 125.472 15.2371C125.685 15.1379 125.864 14.9724 125.995 14.7739C126.141 14.5588 126.239 14.3106 126.305 14.0459C126.37 13.7316 126.403 13.4007 126.403 13.0698V13.1029ZM134.627 14.5919C134.627 14.9393 134.562 15.3033 134.415 15.6176C134.268 15.9154 134.072 16.1636 133.811 16.3621C133.534 16.5772 133.207 16.7261 132.881 16.8088C132.506 16.9081 132.114 16.9577 131.722 16.9577C131.265 16.9577 130.809 16.8915 130.384 16.7592C130.221 16.7095 130.074 16.6434 129.927 16.5772C129.829 16.5276 129.748 16.4779 129.666 16.3952C129.601 16.329 129.552 16.2298 129.536 16.147C129.503 15.9816 129.487 15.8162 129.487 15.6342C129.487 15.5184 129.487 15.4026 129.503 15.2868C129.503 15.2206 129.519 15.1379 129.552 15.0717C129.568 14.989 129.65 14.9228 129.748 14.9393C129.829 14.9559 129.927 14.989 129.993 15.0386C130.123 15.1213 130.254 15.1875 130.401 15.2537C130.58 15.3364 130.776 15.4191 130.972 15.4687C131.216 15.5349 131.461 15.568 131.706 15.568C131.853 15.568 132.016 15.5515 132.163 15.5184C132.293 15.4853 132.408 15.4356 132.506 15.3695C132.604 15.3033 132.685 15.2206 132.734 15.1213C132.783 15.0055 132.816 14.8897 132.816 14.7739C132.816 14.625 132.767 14.4926 132.685 14.3768C132.587 14.261 132.457 14.1618 132.326 14.0956C132.163 14.0129 131.983 13.9301 131.804 13.864C131.608 13.7978 131.412 13.7151 131.2 13.6323C130.988 13.5496 130.792 13.4504 130.596 13.3345C130.401 13.2187 130.221 13.0864 130.074 12.9209C129.911 12.7555 129.797 12.557 129.699 12.3254C129.601 12.0606 129.552 11.7794 129.568 11.4981C129.568 11.1838 129.634 10.886 129.764 10.6048C129.895 10.3235 130.074 10.0919 130.303 9.90991C130.564 9.71138 130.857 9.54594 131.168 9.46322C131.543 9.34741 131.934 9.29778 132.326 9.29778C132.538 9.29778 132.734 9.31432 132.946 9.34741C133.126 9.3805 133.305 9.41359 133.485 9.46322C133.632 9.49631 133.762 9.54594 133.893 9.61212C133.974 9.64521 134.056 9.69484 134.137 9.74447C134.186 9.77756 134.219 9.81065 134.235 9.86028C134.252 9.90991 134.268 9.95955 134.284 9.99263C134.301 10.0423 134.301 10.1084 134.317 10.1912C134.333 10.2739 134.333 10.3731 134.333 10.489C134.333 10.6048 134.333 10.7371 134.317 10.8198C134.317 10.886 134.301 10.9522 134.284 11.0184C134.268 11.068 134.252 11.1011 134.219 11.1176C134.186 11.1342 134.154 11.1507 134.105 11.1507C134.023 11.1342 133.958 11.1176 133.893 11.068C133.795 11.0184 133.681 10.9522 133.534 10.9026C133.371 10.8364 133.207 10.7868 133.028 10.7371C132.816 10.6709 132.587 10.6544 132.375 10.6544C132.228 10.6544 132.065 10.6709 131.918 10.704C131.804 10.7371 131.706 10.7868 131.608 10.8529C131.527 10.9191 131.461 11.0018 131.429 11.0845C131.38 11.1673 131.363 11.2665 131.363 11.3658C131.363 11.5147 131.412 11.6636 131.51 11.7629C131.624 11.8787 131.739 11.9779 131.886 12.0441C132.065 12.1268 132.245 12.2095 132.424 12.2592C132.62 12.3254 132.832 12.4081 133.028 12.4908C133.24 12.5735 133.436 12.6728 133.648 12.7886C133.844 12.9044 134.023 13.0368 134.186 13.2022C134.35 13.3676 134.48 13.5662 134.562 13.7812C134.66 14.0459 134.709 14.3106 134.709 14.5919H134.627Z" fill="white"/>
<path d="M41.7268 15.932C41.7268 16.0644 41.7268 16.1967 41.7105 16.3125C41.6942 16.3952 41.6779 16.4945 41.6452 16.5772C41.6289 16.6434 41.5963 16.693 41.5473 16.7261C41.5147 16.7592 41.4657 16.7758 41.4168 16.7758H36.9292C36.7824 16.7758 36.6192 16.7261 36.505 16.6269C36.3907 16.4945 36.3255 16.3125 36.3418 16.1471V7.13053C36.3418 7.0809 36.3581 7.03127 36.3907 6.99818C36.4397 6.94855 36.4886 6.91546 36.5539 6.89892C36.6518 6.86583 36.7497 6.84928 36.864 6.83274C37.1903 6.79965 37.5167 6.79965 37.8267 6.83274C37.9247 6.84928 38.0226 6.86583 38.1368 6.89892C38.2021 6.91546 38.251 6.94855 38.3 6.99818C38.3326 7.03127 38.3489 7.0809 38.3489 7.13053V15.1213H41.4168C41.4657 15.1213 41.5147 15.1379 41.5473 15.171C41.5963 15.2041 41.6289 15.2537 41.6452 15.3033C41.6779 15.386 41.6942 15.4688 41.6942 15.5515C41.7268 15.6838 41.7268 15.8162 41.7268 15.932Z" fill="white"/>
<path fill-rule="evenodd" clip-rule="evenodd" d="M139.326 6.83249C139.326 7.16337 139.261 7.47771 139.147 7.77551C139.033 8.05676 138.853 8.32146 138.641 8.55308C138.429 8.76815 138.168 8.95014 137.874 9.06595C137.58 9.1983 137.254 9.26448 136.928 9.24793C136.601 9.24793 136.275 9.18176 135.965 9.06595C135.687 8.95014 135.426 8.7847 135.214 8.56962C135.002 8.35455 134.839 8.08984 134.725 7.80859C134.594 7.49426 134.545 7.16337 134.545 6.83249C134.545 6.18727 134.79 5.57514 135.247 5.1119C135.459 4.89683 135.72 4.73139 136.014 4.61558C136.308 4.48323 136.634 4.43359 136.96 4.43359C137.287 4.43359 137.613 4.48323 137.907 4.61558C138.478 4.8472 138.918 5.29389 139.147 5.87293C139.277 6.18727 139.343 6.51815 139.326 6.83249ZM138.788 6.86558C138.788 6.60087 138.739 6.31962 138.657 6.07146C138.576 5.83984 138.445 5.64131 138.282 5.45933C138.119 5.29389 137.923 5.14499 137.711 5.06227C137.482 4.96301 137.238 4.92992 136.977 4.92992C136.715 4.92992 136.454 4.97955 136.21 5.07881C135.997 5.17808 135.785 5.31043 135.622 5.49242C135.459 5.6744 135.328 5.87293 135.247 6.10455C135.165 6.33617 135.116 6.58433 135.116 6.83249C135.116 7.0972 135.165 7.37845 135.247 7.62661C135.328 7.85823 135.459 8.05676 135.622 8.23874C135.785 8.40418 135.981 8.55308 136.193 8.6358C136.422 8.73506 136.667 8.7847 136.928 8.76815C137.189 8.76815 137.45 8.71852 137.695 8.61926C137.907 8.51999 138.119 8.38764 138.282 8.20565C138.445 8.04021 138.576 7.82514 138.657 7.61006C138.739 7.3619 138.788 7.11374 138.788 6.86558ZM138.07 8.00712C138.07 8.02367 138.07 8.04021 138.054 8.05676C138.037 8.0733 138.021 8.08984 138.005 8.08984C137.972 8.08984 137.939 8.10639 137.907 8.10639C137.858 8.10639 137.809 8.10639 137.727 8.10639C137.646 8.10639 137.597 8.10639 137.564 8.10639C137.531 8.10639 137.499 8.08984 137.466 8.08984C137.45 8.0733 137.417 8.0733 137.401 8.05676C137.385 8.04021 137.368 8.00712 137.368 7.97404L137.238 7.54389C137.205 7.42808 137.156 7.31227 137.058 7.22955C136.977 7.16337 136.862 7.13029 136.764 7.14683H136.601V8.00712C136.601 8.04021 136.585 8.0733 136.552 8.10639C136.471 8.12293 136.389 8.13948 136.308 8.12293C136.226 8.12293 136.144 8.12293 136.063 8.10639C136.03 8.08984 135.997 8.05676 135.997 8.00712V5.75712C135.997 5.6744 136.014 5.60823 136.063 5.54205C136.112 5.49242 136.193 5.45933 136.259 5.45933H136.96C137.107 5.45933 137.254 5.47587 137.385 5.50896C137.499 5.52551 137.613 5.57514 137.695 5.64131C137.776 5.70749 137.841 5.77367 137.89 5.87293C137.939 5.9722 137.956 6.08801 137.956 6.20381C137.956 6.36926 137.907 6.5347 137.793 6.66705C137.678 6.78286 137.531 6.86558 137.368 6.89867C137.466 6.93176 137.564 6.99793 137.646 7.06411C137.744 7.16337 137.825 7.27918 137.858 7.41153L138.005 7.80859C138.054 7.87477 138.054 7.94095 138.07 8.00712ZM137.303 6.28654C137.303 6.2369 137.303 6.20381 137.287 6.15418C137.27 6.10455 137.254 6.07146 137.221 6.03837C137.189 6.00529 137.14 5.98874 137.091 5.9722C137.026 5.95565 136.944 5.95565 136.879 5.95565H136.601V6.65051H136.879C137.009 6.66705 137.123 6.63396 137.238 6.55124C137.27 6.48506 137.319 6.3858 137.303 6.28654Z" fill="white"/>
</svg>
