<svg width="52" height="52" viewBox="0 0 52 52" fill="none" xmlns="http://www.w3.org/2000/svg">
<path d="M26 50C39.2548 50 50 39.2548 50 26C50 12.7452 39.2548 2 26 2C12.7452 2 2 12.7452 2 26C2 39.2548 12.7452 50 26 50Z" stroke="white" stroke-width="3" stroke-miterlimit="10"/>
<path d="M21.3505 31.7511C21.514 33.0548 22.0487 34.2878 22.5149 35.5147C23.1485 37.1876 22.8963 38.0251 21.401 38.6365C19.6978 39.3327 18.0894 38.802 17.5204 37.3309C17.2439 36.6165 16.9251 35.9082 16.7414 35.0364C16.3741 33.307 15.8797 29.7513 16.0876 27.9956C16.2531 26.6073 16.7132 25.1826 17.363 23.9294C18.1015 22.5047 19.1307 21.199 20.2124 20.0004C20.6705 19.4938 21.5725 19.1932 22.2848 19.171C22.8499 19.1528 23.5824 19.5867 23.9457 20.0508C24.1293 20.2849 23.6874 21.0437 23.4755 21.536C20.7572 27.8625 20.9288 28.3791 21.3505 31.7511Z" fill="white"/>
<path d="M23.7782 13.0606C25.8285 13.0565 27.5458 14.2613 27.5196 15.686C27.4954 17.0945 25.7195 18.2831 23.7056 18.2387C21.7501 18.1943 20.0046 17.0017 19.9723 15.686C19.938 14.3319 21.7764 13.0646 23.7782 13.0606Z" fill="white"/>
<path d="M24.6741 35.3653C23.538 34.768 22.6521 33.9406 22.0124 32.8812C21.3727 31.8217 21.0538 30.619 21.0538 29.273C21.0538 27.927 21.3727 26.7243 22.0124 25.6648C22.6521 24.6054 23.538 23.778 24.6741 23.1807C25.8102 22.5833 27.0917 22.2847 28.5204 22.2847C29.9491 22.2847 31.2286 22.5833 32.3546 23.1807C33.4806 23.778 34.3645 24.6054 35.0042 25.6648C35.6439 26.7243 35.9628 27.927 35.9628 29.273C35.9628 30.619 35.6439 31.8217 35.0042 32.8812C34.3645 33.9406 33.4827 34.77 32.3546 35.3653C31.2286 35.9626 29.9491 36.2613 28.5204 36.2613C27.0917 36.2613 25.8102 35.9626 24.6741 35.3653ZM31.0066 32.0114C31.6544 31.3293 31.9772 30.4192 31.9772 29.275C31.9772 28.1308 31.6523 27.2187 31.0066 26.5386C30.3588 25.8565 29.5314 25.5175 28.5224 25.5175C27.5134 25.5175 26.68 25.8585 26.0242 26.5386C25.3683 27.2187 25.0394 28.1328 25.0394 29.275C25.0394 30.4192 25.3683 31.3313 26.0242 32.0114C26.68 32.6915 27.5134 33.0325 28.5224 33.0325C29.5314 33.0325 30.3588 32.6915 31.0066 32.0114Z" fill="white"/>
</svg>
