<svg width="52" height="52" viewBox="0 0 52 52" fill="none" xmlns="http://www.w3.org/2000/svg">
<path d="M25.8599 49.8599C39.1147 49.8599 49.8599 39.1147 49.8599 25.8599C49.8599 12.605 39.1147 1.85986 25.8599 1.85986C12.605 1.85986 1.85986 12.605 1.85986 25.8599C1.85986 39.1147 12.605 49.8599 25.8599 49.8599Z" stroke="black" stroke-width="3" stroke-miterlimit="10"/>
<path d="M19.722 31.7972L19.7221 31.7976C19.8874 33.1157 20.3782 34.3765 20.7843 35.4199C20.8498 35.588 20.9131 35.7506 20.9724 35.9068C21.1078 36.2642 21.1694 36.5102 21.1909 36.6758C21.2012 36.7544 21.2008 36.8029 21.199 36.8287C21.1543 36.8724 21.0234 36.9729 20.6933 37.1079C20.1119 37.3456 19.6578 37.3297 19.3712 37.2338C19.1085 37.1459 18.9026 36.9685 18.7793 36.6496L18.7792 36.6494C18.718 36.4914 18.6593 36.3434 18.6031 36.2019C18.375 35.6277 18.1904 35.1629 18.0691 34.5871L18.0686 34.5847C17.8967 33.7752 17.6888 32.5045 17.55 31.2241C17.4077 29.9111 17.3547 28.729 17.437 28.0324C17.5794 26.8384 17.9805 25.5867 18.5545 24.4797L18.5546 24.4796C19.2083 23.2185 20.1417 22.0224 21.1849 20.8663C21.1849 20.8663 21.1849 20.8663 21.1849 20.8663C21.1853 20.8659 21.1871 20.8639 21.1907 20.8605C21.1947 20.8567 21.2008 20.8514 21.209 20.8447C21.2258 20.831 21.2499 20.8134 21.2824 20.7932C21.3488 20.7518 21.4375 20.7073 21.5459 20.6661C21.7264 20.5976 21.9163 20.5551 22.0778 20.5381C22.0371 20.6247 21.9947 20.7166 21.9575 20.803L21.9572 20.8038C20.608 23.9439 19.8991 25.8074 19.6197 27.3427C19.3472 28.8396 19.4934 29.9923 19.6794 31.4595C19.6934 31.5702 19.7077 31.6826 19.722 31.7972ZM21.196 36.852C21.196 36.852 21.1961 36.8513 21.1964 36.8501L21.196 36.852ZM21.21 36.8171C21.2147 36.8085 21.2183 36.8045 21.2189 36.8046C21.2196 36.8047 21.2172 36.809 21.21 36.8171Z" fill="black" stroke="black" stroke-width="3"/>
<path d="M25.8797 15.52L25.8797 15.5182C25.8808 15.4591 25.8455 15.2197 25.4259 14.9252C25.0196 14.6401 24.3859 14.419 23.6411 14.4204L25.8797 15.52ZM25.8797 15.52C25.8788 15.5689 25.8332 15.82 25.3843 16.1205M25.8797 15.52L25.3843 16.1205M21.3317 15.5078L21.3317 15.509C21.3317 15.5096 21.3318 15.5121 21.3327 15.5171C21.3337 15.5222 21.3357 15.5308 21.3398 15.5429C21.3483 15.5674 21.3659 15.6072 21.4014 15.6604C21.4747 15.7701 21.6091 15.9137 21.8241 16.0607C22.2599 16.3585 22.9006 16.5831 23.5992 16.599L21.3317 15.5078ZM21.3317 15.5078C21.3318 15.5127 21.3318 15.5125 21.3331 15.5077M21.3317 15.5078L21.3331 15.5077M23.641 14.4204L23.6381 12.9204L23.641 14.4204ZM23.641 14.4204C22.9385 14.4218 22.2752 14.6499 21.8232 14.9617M23.641 14.4204L21.8232 14.9617M25.3843 16.1205C24.9565 16.4068 24.3158 16.6146 23.5995 16.599L25.3843 16.1205ZM21.3331 15.5077C21.3409 15.4766 21.3965 15.2559 21.8232 14.9617M21.3331 15.5077L21.8232 14.9617" fill="black" stroke="black" stroke-width="3"/>
<path d="M31.5145 33.899L31.5117 33.9006C30.6275 34.3696 29.5945 34.6216 28.3804 34.6216C27.1671 34.6216 26.1297 34.3699 25.2321 33.898C24.3291 33.4232 23.6497 32.783 23.1564 31.9662C22.6707 31.1617 22.4138 30.2317 22.4138 29.1333C22.4138 28.035 22.6707 27.105 23.1564 26.3005C23.6497 25.4836 24.3291 24.8435 25.2321 24.3687C26.1297 23.8968 27.1671 23.645 28.3804 23.645C29.5945 23.645 30.6275 23.8971 31.5117 24.3661C32.4064 24.8408 33.0858 25.4818 33.5801 26.3005C34.0659 27.105 34.3228 28.035 34.3228 29.1333C34.3228 30.2317 34.0659 31.1617 33.5801 31.9662C33.0846 32.7869 32.407 33.4281 31.5145 33.899ZM31.9527 32.9063L31.9542 32.9047C32.9216 31.8861 33.3372 30.5761 33.3372 29.1354C33.3372 27.6938 32.9192 26.3822 31.9543 25.3661L31.9542 25.366C30.9999 24.3611 29.7675 23.8778 28.3824 23.8778C26.9963 23.8778 25.7632 24.3635 24.8044 25.3577C23.8245 26.3738 23.3994 27.691 23.3994 29.1354C23.3994 30.5821 23.8247 31.8971 24.8044 32.913C25.7632 33.9072 26.9963 34.3929 28.3824 34.3929C29.7695 34.3929 31.0002 33.9062 31.9527 32.9063Z" fill="black" stroke="black" stroke-width="3"/>
</svg>
