<svg width="50" height="50" viewBox="0 0 50 50" fill="none" xmlns="http://www.w3.org/2000/svg">
<g clip-path="url(#clip0_32_10)">
<path fill-rule="evenodd" clip-rule="evenodd" d="M25 47.6C37.4816 47.6 47.6 37.4816 47.6 25C47.6 12.5184 37.4816 2.4 25 2.4C12.5184 2.4 2.4 12.5184 2.4 25C2.4 37.4816 12.5184 47.6 25 47.6ZM0 25C0 38.8071 11.1929 50 25 50C38.8071 50 50 38.8071 50 25C50 11.1929 38.8071 0 25 0C11.1929 0 0 11.1929 0 25Z" fill="currentColor"/>
<path d="M19 19L31 31" stroke="currentColor" stroke-width="2"/>
<path d="M19 31L31 19" stroke="currentColor" stroke-width="2"/>
</g>
<defs>
<clipPath id="clip0_32_10">
<rect width="50" height="50" fill="currentColor"/>
</clipPath>
</defs>
</svg>
