<svg width="25" height="24" viewBox="0 0 25 24" fill="none" xmlns="http://www.w3.org/2000/svg">
<g clip-path="url(#clip0_424_536)">
<path d="M24.5 11.9941C24.5 5.36672 19.1274 -0.00585938 12.5 -0.00585938C5.87258 -0.00585938 0.5 5.36672 0.5 11.9941C0.5 17.9836 4.8882 22.9481 10.625 23.8484V15.4629H7.57812V11.9941H10.625V9.35039C10.625 6.34289 12.4166 4.68164 15.1576 4.68164C16.4701 4.68164 17.8438 4.91602 17.8438 4.91602V7.86914H16.3306C14.84 7.86914 14.375 8.79422 14.375 9.74414V11.9941H17.7031L17.1711 15.4629H14.375V23.8484C20.1118 22.9481 24.5 17.9836 24.5 11.9941Z" fill="white"/>
</g>
<defs>
<clipPath id="clip0_424_536">
<rect width="24" height="24" fill="white" transform="translate(0.5 -0.00585938)"/>
</clipPath>
</defs>
</svg>
