<svg width="50" height="50" viewBox="0 0 50 50" fill="none" xmlns="http://www.w3.org/2000/svg">
  <path
    fill-rule="evenodd"
    clip-rule="evenodd"
    d="M25 47.6C37.4816 47.6 47.6 37.4816 47.6 25C47.6 12.5184 37.4816 2.4 25 2.4C12.5184 2.4 2.4 12.5184 2.4 25C2.4 37.4816 12.5184 47.6 25 47.6ZM0 25C0 38.8071 11.1929 50 25 50C38.8071 50 50 38.8071 50 25C50 11.1929 38.8071 0 25 0C11.1929 0 0 11.1929 0 25Z"
    fill="currentColor"
  />
  <path
    fill-rule="evenodd"
    clip-rule="evenodd"
    d="M24.2513 30.6899C24.6648 31.1034 25.3352 31.1034 25.7487 30.6899L30.6899 25.7487C31.1034 25.3352 31.1034 24.6648 30.6899 24.2513L25.7487 19.3101C25.3352 18.8966 24.6648 18.8966 24.2513 19.3101C23.8378 19.7236 23.8378 20.394 24.2513 20.8075L27.385 23.9412H20.0588C19.4741 23.9412 19 24.4152 19 25C19 25.5848 19.4741 26.0588 20.0588 26.0588H27.385L24.2513 29.1925C23.8378 29.606 23.8378 30.2764 24.2513 30.6899Z"
    fill="currentColor"
  />
</svg>
