<svg width="40" height="40" viewBox="0 0 40 40" fill="none" xmlns="http://www.w3.org/2000/svg">
<path fill-rule="evenodd" clip-rule="evenodd" d="M10.75 17.0374C10.75 11.6982 14.9168 7.41699 20 7.41699C25.0832 7.41699 29.25 11.6982 29.25 17.0374C29.25 21.2139 26.8895 25.1164 24.4268 28.0352C23.2055 29.4827 21.9823 30.6608 21.0642 31.4768C20.6285 31.8641 20.2627 32.1689 20 32.3811C19.7373 32.1689 19.3715 31.8641 18.9358 31.4768C18.0177 30.6608 16.7945 29.4827 15.5732 28.0352C13.1105 25.1164 10.75 21.2139 10.75 17.0374ZM20.4464 33.9363L20 33.3337C20.4464 33.9363 20.4466 33.9362 20.4469 33.936L20.4476 33.9355L20.4496 33.934L20.4564 33.9289L20.4806 33.9107C20.5014 33.895 20.5314 33.8722 20.57 33.8424C20.6472 33.783 20.7587 33.6959 20.8997 33.5825C21.1817 33.3557 21.5818 33.0237 22.0608 32.5979C23.0177 31.7473 24.2945 30.518 25.5732 29.0025C28.1105 25.9954 30.75 21.7497 30.75 17.0374C30.75 10.9217 25.9625 5.91699 20 5.91699C14.0375 5.91699 9.25 10.9217 9.25 17.0374C9.25 21.7497 11.8895 25.9954 14.4268 29.0025C15.7055 30.518 16.9823 31.7473 17.9392 32.5979C18.4182 33.0237 18.8183 33.3557 19.1003 33.5825C19.2413 33.6959 19.3528 33.783 19.43 33.8424C19.4686 33.8722 19.4986 33.895 19.5194 33.9107L19.5436 33.9289L19.5504 33.934L19.5524 33.9355L19.5531 33.936C19.5534 33.9362 19.5536 33.9363 20 33.3337L19.5536 33.9363L20 34.267L20.4464 33.9363ZM17.4167 16.667C17.4167 15.2403 18.5733 14.0837 20 14.0837C21.4267 14.0837 22.5833 15.2403 22.5833 16.667C22.5833 18.0937 21.4267 19.2503 20 19.2503C18.5733 19.2503 17.4167 18.0937 17.4167 16.667ZM20 12.5837C17.7448 12.5837 15.9167 14.4118 15.9167 16.667C15.9167 18.9222 17.7448 20.7503 20 20.7503C22.2552 20.7503 24.0833 18.9222 24.0833 16.667C24.0833 14.4118 22.2552 12.5837 20 12.5837Z" fill="currentColor"/>
</svg>
