<svg width="30" height="30" viewBox="0 0 30 30" fill="none" xmlns="http://www.w3.org/2000/svg">
<path fill-rule="evenodd" clip-rule="evenodd" d="M21.0239 25.5815C19.2272 25.9741 15.3241 25.7988 9.77278 20.2474C6.14313 16.6177 4.80401 13.6901 4.43013 11.5715C4.24345 10.5136 4.3015 9.67782 4.42026 9.08404C4.4794 8.78833 4.55303 8.55543 4.61692 8.38742C4.64885 8.30346 4.67832 8.23576 4.7023 8.18457C4.71429 8.15898 4.72492 8.1375 4.73379 8.12018L4.74575 8.09729L4.75066 8.08819L4.75283 8.08422L4.75384 8.08238C4.75384 8.08238 4.75481 8.08064 5.57433 8.53593L4.75481 8.08064L4.81857 7.96586L9.10987 3.67457L14.8551 9.41981L11.9705 12.3044C12.0706 12.5462 12.2069 12.8546 12.3791 13.199C12.799 14.0388 13.4086 15.0444 14.1922 15.828C14.9758 16.6116 15.9814 17.2212 16.8212 17.6411C17.1656 17.8133 17.474 17.9496 17.7157 18.0497L20.6003 15.165L26.3456 20.9103L22.6423 24.6136C22.2707 24.9852 21.741 25.4249 21.0239 25.5815ZM17.9487 19.1425C17.6522 20.0319 17.6519 20.0318 17.6519 20.0318L17.6504 20.0313L17.6475 20.0303L17.6389 20.0274L17.6105 20.0176C17.5867 20.0093 17.5532 19.9975 17.5109 19.9821C17.4264 19.9514 17.3066 19.9065 17.1586 19.8473C16.8629 19.729 16.452 19.5528 15.9827 19.3182C15.0547 18.8542 13.8506 18.138 12.8664 17.1538C11.8822 16.1696 11.166 14.9655 10.702 14.0375C10.4674 13.5682 10.2912 13.1572 10.1729 12.8616C10.1137 12.7135 10.0687 12.5937 10.038 12.5092C10.0226 12.467 10.0108 12.4335 10.0025 12.4097L9.99273 12.3812L9.98983 12.3727L9.98887 12.3698L9.98836 12.3683L9.80502 11.8183L12.2035 9.41981L9.10987 6.32622L6.3619 9.07418C6.33294 9.15342 6.29327 9.27963 6.25885 9.45176C6.18425 9.82472 6.13182 10.4252 6.2766 11.2456C6.56563 12.8835 7.65719 15.4802 11.0986 18.9216C16.3327 24.1557 19.6164 23.9698 20.6237 23.7497C20.8144 23.7081 21.0311 23.5731 21.3165 23.2877L23.6939 20.9103L20.6003 17.8167L18.2019 20.2151L17.6519 20.0318L17.9487 19.1425Z" fill="white"/>
</svg>
