<svg width="25" height="24" viewBox="0 0 25 24" fill="none" xmlns="http://www.w3.org/2000/svg">
<path fill-rule="evenodd" clip-rule="evenodd" d="M5.25 10.5C5.25 7.32436 7.82436 4.75 11 4.75C14.1756 4.75 16.75 7.32436 16.75 10.5C16.75 13.6756 14.1756 16.25 11 16.25C7.82436 16.25 5.25 13.6756 5.25 10.5ZM11 3.25C6.99594 3.25 3.75 6.49594 3.75 10.5C3.75 14.5041 6.99594 17.75 11 17.75C12.7319 17.75 14.3219 17.1427 15.5689 16.1295L19.9697 20.5303L21.0303 19.4697L16.6295 15.0689C17.6427 13.8219 18.25 12.2319 18.25 10.5C18.25 6.49594 15.0041 3.25 11 3.25Z" fill="white"/>
</svg>
