<svg width="50" height="50" viewBox="0 0 50 50" fill="none" xmlns="http://www.w3.org/2000/svg">
<path fill-rule="evenodd" clip-rule="evenodd" d="M23.6753 26.3247V35.0649H25.6753V26.3247H34.4156V24.3247H25.6753V15.5844H23.6753V24.3247H14.9351V26.3247H23.6753Z" fill="#18A8BB"/>
<path fill-rule="evenodd" clip-rule="evenodd" d="M25 47.6C37.4816 47.6 47.6 37.4816 47.6 25C47.6 12.5184 37.4816 2.4 25 2.4C12.5184 2.4 2.4 12.5184 2.4 25C2.4 37.4816 12.5184 47.6 25 47.6ZM0 25C0 38.8071 11.1929 50 25 50C38.8071 50 50 38.8071 50 25C50 11.1929 38.8071 0 25 0C11.1929 0 0 11.1929 0 25Z" fill="#18A8BB"/>
</svg>
