<svg width="26" height="24" viewBox="0 0 26 24" fill="none" xmlns="http://www.w3.org/2000/svg">
<path d="M16.6163 17.5703C11.7427 17.5703 7.77767 13.6028 7.77634 8.72779C7.77767 7.49202 8.78361 6.48712 10.0163 6.48712C10.1431 6.48712 10.2685 6.4978 10.3886 6.51915C10.6527 6.56319 10.9035 6.6526 11.1343 6.78739C11.1677 6.80741 11.1904 6.83946 11.1957 6.87682L11.7107 10.1237C11.7173 10.1624 11.7053 10.1998 11.68 10.2278C11.3958 10.5427 11.0329 10.7696 10.6287 10.8831L10.4339 10.9378L10.5073 11.1259C11.1717 12.8181 12.5245 14.17 14.2175 14.8372L14.4056 14.912L14.4603 14.7171C14.5737 14.3128 14.8005 13.9498 15.1154 13.6655C15.1381 13.6442 15.1687 13.6335 15.1994 13.6335C15.2061 13.6335 15.2128 13.6335 15.2208 13.6348L18.4667 14.15C18.5054 14.1566 18.5374 14.178 18.5574 14.2113C18.6908 14.4422 18.7802 14.6944 18.8256 14.9587C18.8469 15.0761 18.8563 15.2002 18.8563 15.3297C18.8563 16.5641 17.8517 17.569 16.6163 17.5703Z" fill="white"/>
<path d="M25.2588 10.9297C24.9959 7.95907 23.6351 5.2033 21.4271 3.17082C19.2058 1.12634 16.3241 0 13.3103 0C6.69569 0 1.31383 5.38345 1.31383 12C1.31383 14.2206 1.92618 16.3839 3.08554 18.2682L0.5 23.9934L8.77827 23.1112C10.2178 23.7011 11.7414 24 13.309 24C13.7212 24 14.1441 23.9786 14.5684 23.9346C14.9419 23.8946 15.3195 23.8359 15.6904 23.7611C21.2297 22.6415 25.2734 17.7238 25.3054 12.0641V12C25.3054 11.6397 25.2894 11.2794 25.2574 10.931L25.2588 10.9297ZM9.09713 20.5983L4.51707 21.0868L5.88455 18.0561L5.61105 17.6891C5.59104 17.6624 5.57103 17.6357 5.54835 17.605C4.36098 15.9649 3.73392 14.0271 3.73392 12.0013C3.73392 6.7193 8.02982 2.42214 13.3103 2.42214C18.2572 2.42214 22.4504 6.28292 22.8547 11.2113C22.876 11.4755 22.888 11.7411 22.888 12.0027C22.888 12.0774 22.8867 12.1508 22.8853 12.2295C22.7839 16.6481 19.6981 20.4008 15.3809 21.3563C15.0513 21.4297 14.7138 21.4858 14.3776 21.5218C14.0281 21.5619 13.6692 21.5819 13.313 21.5819C12.0442 21.5819 10.8115 21.3363 9.64679 20.8505C9.51738 20.7985 9.39063 20.7425 9.27189 20.6851L9.09846 20.601L9.09713 20.5983Z" fill="white"/>
</svg>
