<svg width="52" height="50" viewBox="0 0 52 50" fill="none" xmlns="http://www.w3.org/2000/svg">
<path d="M33.7349 36.6046C23.5816 36.6046 15.3211 28.339 15.3184 18.1827C15.3211 15.6082 17.4168 13.5146 19.985 13.5146C20.2491 13.5146 20.5103 13.5369 20.7605 13.5814C21.3108 13.6731 21.8334 13.8594 22.3142 14.1402C22.3837 14.1819 22.4309 14.2487 22.442 14.3265L23.5149 21.0908C23.5288 21.1715 23.5038 21.2493 23.451 21.3077C22.859 21.9638 22.103 22.4365 21.2608 22.6728L20.855 22.7868L21.0078 23.1788C22.392 26.7042 25.2104 29.5206 28.7375 30.9107L29.1294 31.0664L29.2433 30.6605C29.4796 29.8181 29.9521 29.0618 30.608 28.4696C30.6553 28.4251 30.7192 28.4029 30.7831 28.4029C30.797 28.4029 30.8109 28.4029 30.8276 28.4057L37.59 29.4789C37.6706 29.4928 37.7373 29.5373 37.779 29.6068C38.0569 30.0878 38.2431 30.6132 38.3376 31.1637C38.3821 31.4083 38.4016 31.6669 38.4016 31.9366C38.4016 34.5083 36.3086 36.6019 33.7349 36.6046Z" fill="white"/>
<path d="M51.7409 22.7702C51.1933 16.5814 48.3583 10.8402 43.7584 6.60588C39.1306 2.34654 33.127 0 26.8483 0C13.0678 0 1.85564 11.2155 1.85564 25C1.85564 29.6263 3.13137 34.1331 5.5467 38.0588L0.160156 49.9862L17.4065 48.1484C20.4056 49.3772 23.5797 50 26.8455 50C27.7043 50 28.5854 49.9555 29.4693 49.8638C30.2475 49.7804 31.0341 49.6581 31.8068 49.5024C43.347 47.1698 51.7715 36.9245 51.8382 25.1334V25C51.8382 24.2493 51.8048 23.4987 51.7381 22.773L51.7409 22.7702ZM18.0708 42.9131L8.52906 43.9308L11.378 37.6168L10.8082 36.8522C10.7665 36.7966 10.7248 36.741 10.6776 36.6771C8.20386 33.2601 6.8975 29.2232 6.8975 25.0028C6.8975 13.9985 15.8473 5.04613 26.8483 5.04613C37.1544 5.04613 45.8902 13.0894 46.7323 23.3569C46.7768 23.9074 46.8018 24.4606 46.8018 25.0056C46.8018 25.1613 46.799 25.3142 46.7963 25.4782C46.585 34.6836 40.1562 42.5017 31.162 44.4924C30.4754 44.6453 29.7722 44.7621 29.0718 44.8371C28.3436 44.9205 27.5959 44.9622 26.8538 44.9622C24.2106 44.9622 21.6424 44.4507 19.216 43.4386C18.9464 43.3302 18.6823 43.2135 18.4349 43.0939L18.0736 42.9187L18.0708 42.9131Z" fill="white"/>
</svg>
