<svg width="25" height="24" viewBox="0 0 25 24" fill="none" xmlns="http://www.w3.org/2000/svg">
<g clip-path="url(#clip0_1268_3115)">
<path d="M24.0664 7.20005C24.0664 7.20005 23.832 5.54536 23.1101 4.8188C22.1961 3.86255 21.1742 3.85786 20.7055 3.80161C17.3492 3.55786 12.3101 3.55786 12.3101 3.55786H12.3008C12.3008 3.55786 7.2617 3.55786 3.90545 3.80161C3.4367 3.85786 2.41483 3.86255 1.50076 4.8188C0.778888 5.54536 0.5492 7.20005 0.5492 7.20005C0.5492 7.20005 0.30545 9.14536 0.30545 11.086V12.9047C0.30545 14.8454 0.544513 16.7907 0.544513 16.7907C0.544513 16.7907 0.778888 18.4454 1.49608 19.1719C2.41014 20.1282 3.61014 20.0954 4.14451 20.1985C6.06639 20.3813 12.3055 20.4375 12.3055 20.4375C12.3055 20.4375 17.3492 20.4282 20.7055 20.1891C21.1742 20.1329 22.1961 20.1282 23.1101 19.1719C23.832 18.4454 24.0664 16.7907 24.0664 16.7907C24.0664 16.7907 24.3055 14.85 24.3055 12.9047V11.086C24.3055 9.14536 24.0664 7.20005 24.0664 7.20005ZM9.82576 15.1125V8.36724L16.3086 11.7516L9.82576 15.1125Z" fill="white"/>
</g>
<defs>
<clipPath id="clip0_1268_3115">
<rect width="24" height="24" fill="white" transform="translate(0.30545)"/>
</clipPath>
</defs>
</svg>
